<svg xmlns="http://www.w3.org/2000/svg" viewBox="0 0 361.46 321.98"><defs><style>.cls-1{fill:#e1a1b0;}.cls-2{fill:#fff;}.cls-3{fill:#f7cc1f;}</style></defs><g id="Layer_2" data-name="Layer 2"><g id="Layer_1-2" data-name="Layer 1"><path class="cls-1" d="M356.34,132.16a7.39,7.39,0,0,0-8.36,3c-9,14-25.13,16.68-32,17.84-2.54.43-3.7.62-4.83,1.5a3.85,3.85,0,0,0-1.29,4.37l11.3,30.86a4.13,4.13,0,0,0,2.28,2.34,4.52,4.52,0,0,0,1.77.36,4.45,4.45,0,0,0,1.61-.29c27.88-10.57,33.67-37.77,34.63-53.05A6.75,6.75,0,0,0,356.34,132.16Z"/><path class="cls-1" d="M71.09,254.56l-23.78-.1c-20.58.9-29.68-4.4-33.64-18l-13-44.8C-2,182.53,3.8,173,13.55,170.55L43.08,163c14.54-3.71,29.67,4.39,33.63,18L88.8,220.35C92.76,234,85.63,250.86,71.09,254.56Z"/><path class="cls-1" d="M120.7,89.82c-.42-.32-41.79-32.07-88.61-16a1.38,1.38,0,0,0-.92,1.11c-.06.5-5.38,50.3,46,75.39a1.39,1.39,0,0,0,.65.16,1.48,1.48,0,0,0,1.19-.59L121,91.59A1.27,1.27,0,0,0,120.7,89.82Z"/><path class="cls-1" d="M112.53,322H86.68a8.21,8.21,0,0,1-8.46-7.93l-7.13-45.54a8.2,8.2,0,0,1,8.46-7.92h40.11a8.2,8.2,0,0,1,8.47,7.92L121,314.05A8.21,8.21,0,0,1,112.53,322Z"/><path class="cls-1" d="M286.88,322H261a8.21,8.21,0,0,1-8.47-7.93l-7.13-45.54a8.2,8.2,0,0,1,8.47-7.92H294a8.2,8.2,0,0,1,8.47,7.92l-7.13,45.54A8.22,8.22,0,0,1,286.88,322Z"/><path class="cls-1" d="M338,191.85c0,67.81-69.12,122.78-154.38,122.78s-154.38-55-154.38-122.78S82,65.07,183.6,65.07,338,124,338,191.85Z"/><path class="cls-2" d="M208.91,95.53l.12,0,2.9.51.5.09c.91.17,1.83.35,2.74.54l.19,0c.95.2,1.91.42,2.87.64l.63.15c.92.22,1.83.45,2.75.69l.17,0c.95.25,1.91.51,2.87.79l.69.2c1,.28,1.94.57,2.91.88h0l4.11-11.38c-50.08-15.85-94.44-.59-96.3.07l4.53,11.24c.25-.09,16.25-5.6,39.27-6.34h0a152.93,152.93,0,0,1,25.93,1.35l.29,0C207,95.23,208,95.38,208.91,95.53Z"/><path class="cls-2" d="M228.53,100.82l-.5-.25c-.9-.28-1.86-.57-2.83-.85l-.69-.2c-1-.27-1.91-.54-2.86-.79l-.16,0c-.92-.24-1.83-.46-2.74-.68l-.63-.15c-1-.22-1.91-.44-2.86-.64l-.19,0q-1.37-.29-2.73-.54l-.5-.09L209,96l-.12,0L206,95.59l-.29,0a152.38,152.38,0,0,0-25.85-1.34h0c-22.85.74-38.94,6.25-39.1,6.31l-.45.16-4.9-12.17.49-.17c1.87-.66,46.41-16,96.62-.08l.5.16Zm-43.62-7.69a151.79,151.79,0,0,1,20.93,1.43l.3,0c.94.14,1.89.28,2.85.44l.12,0c1,.15,1.94.32,2.91.5l.5.1c.92.17,1.84.35,2.76.55l.18,0c1,.21,1.92.42,2.88.65L219,97c.92.22,1.83.44,2.76.68l.16,0c1,.25,1.92.52,2.88.8l.7.2c.82.24,1.64.48,2.46.74l3.77-10.44c-47.48-14.85-89.71-1.72-95,0l4.15,10.32a149.63,149.63,0,0,1,39-6.22h0C181.53,93.16,183.22,93.13,184.91,93.13Z"/><ellipse class="cls-2" cx="92.06" cy="155.06" rx="7.55" ry="7.06"/><circle class="cls-3" cx="157" cy="46.42" r="46.42"/><path class="cls-2" d="M132.65,52.14c-.13-.19-.06-.4-.05-.6.14-3.11.29-6.22.43-9.32,0-.93.29-1.15,1.24-1.1l17.95.82a1.54,1.54,0,0,0,.74,0L163,53a1,1,0,0,0,.46.31c-.07.45-.42.23-.63.22l-13.43-.61c-.37,0-.74,0-1.11,0Z"/><path class="cls-2" d="M163.48,53.28A1,1,0,0,1,163,53L153,41.9l.87-18.79c0-.69.3-1,.95-.95,3.3.14,6.6.3,9.89.45a1.33,1.33,0,0,1,.28.1c-.16,3.17-.32,6.33-.47,9.5-.09,2-.16,4.09-.25,6.14l-.39,7.74Z"/><path class="cls-2" d="M164.23,38.35c.09-2.05.16-4.1.25-6.14.15-3.17.31-6.33.47-9.5.15.15.3.3.43.45q6.85,7.5,13.69,15a2.43,2.43,0,0,1,.68,1.87c-.2,4.08-.38,8.17-.57,12.26,0,.42-.05.84-.53,1s-.82-.11-1.12-.45L164.85,39C164.66,38.75,164.44,38.55,164.23,38.35Z"/><path class="cls-2" d="M132.65,52.14l15.66.73c.21.26.41.52.63.77q6.19,6.8,12.38,13.58a5.27,5.27,0,0,1,.49.57.79.79,0,0,1-.59,1.25,3.2,3.2,0,0,1-.62,0l-11.95-.54a2.6,2.6,0,0,1-2-.91q-6.81-7.5-13.63-15C132.92,52.46,132.79,52.3,132.65,52.14Z"/></g></g></svg>