<svg xmlns="http://www.w3.org/2000/svg" viewBox="0 0 567.61 606.5"><defs><style>.cls-1{fill:none;}.cls-2{fill:#231f20;}</style></defs><g id="Layer_2" data-name="Layer 2"><g id="Layer_1-2" data-name="Layer 1"><path d="M296.38,465.43h-24.6v-24.6q-37.27-2.74-59.76-22.58t-22.67-50.49h31.39q1.47,18.36,14.87,30.11t36.17,14.51V316.91l-14.69-4q-29.55-7.71-45.44-25.34t-15.88-43.14q0-30.1,20.38-49.38t55.63-22.77v-25.7h24.6v25.52q34.33,2.94,55.35,22.58T373.67,244H342.46a40.67,40.67,0,0,0-13.13-29.09q-12.57-12-32.95-14.42v89.78l15.6,3.85q33.78,9,50,26.26t16.25,45q0,32.49-21.57,52.32t-60.31,22.95Zm-69-222.87q0,33,44.43,42.4V200.51q-19.27,1.11-31.85,13A38.38,38.38,0,0,0,227.35,242.56ZM346.5,368q0-18.18-12.12-29.38t-38-16.7v91.06q23.87-1.29,37-13T346.5,368Z"/><path class="cls-1" d="M109,98.52q-5.53,4.67-10.82,9.62"/><path class="cls-2" d="M495.11,495.43l-18.61-16.7A258.31,258.31,0,0,0,542.61,306c.48-101.1-57.09-190.7-150.24-233.88C299.07,28.86,193.61,42.62,117.13,108L100.88,89c43-36.72,94.73-59.27,149.75-65.21,51.45-5.56,104.1,3.3,152.25,25.62S491.72,106.15,520.64,149c31,45.88,47.24,100.2,47,157.09A283.26,283.26,0,0,1,495.11,495.43Z"/><path class="cls-1" d="M482,491.28q1.95-2.08,3.85-4.2"/><path class="cls-2" d="M283.8,589.79a283.79,283.79,0,0,1-217-466.66l19.11,16.11A259,259,0,0,0,25,306c0,142.71,116.1,258.81,258.8,258.81a258.32,258.32,0,0,0,172.75-66.11l16.7,18.61A283.32,283.32,0,0,1,283.8,589.79Z"/><line class="cls-1" x1="481.53" y1="491.36" x2="485.8" y2="487.08"/><line class="cls-1" x1="481.95" y1="491.28" x2="481.97" y2="491.28"/><path class="cls-2" d="M365,538.29a12.5,12.5,0,0,1-2.18-24.81l99.48-17.72a12.5,12.5,0,1,1,4.38,24.61l-99.48,17.72A12.77,12.77,0,0,1,365,538.29Z"/><line class="cls-1" x1="481.53" y1="491.36" x2="481.95" y2="491.28"/><path class="cls-2" d="M453.6,606.5a13,13,0,0,1-1.64-.11,12.5,12.5,0,0,1-10.77-14l11.31-86a12.5,12.5,0,0,1,24.79,3.26l-11.31,86A12.51,12.51,0,0,1,453.6,606.5Z"/><path class="cls-2" d="M109,111a12.5,12.5,0,0,1-2.18-24.81l99.93-17.8A12.5,12.5,0,0,1,211.13,93l-99.93,17.8A12.79,12.79,0,0,1,109,111Z"/><path class="cls-2" d="M109.2,109.64a11.39,11.39,0,0,1-1.64-.11,12.5,12.5,0,0,1-10.77-14l11.14-84.64a12.5,12.5,0,1,1,24.78,3.26L121.58,98.77A12.51,12.51,0,0,1,109.2,109.64Z"/><line class="cls-1" x1="98" y1="109.52" x2="98.18" y2="108.14"/></g></g></svg>