<svg xmlns="http://www.w3.org/2000/svg" viewBox="0 0 438.49 411.95"><defs><style>.cls-1{fill:#fff;}.cls-2{fill:none;}</style></defs><g id="Layer_2" data-name="Layer 2"><g id="Layer_1-2" data-name="Layer 1"><path class="cls-1" d="M384.43,40.05c-18.12-14-41.95-21.74-67.11-21.74H256.63V5.21a5.2,5.2,0,0,0-7.44-4.7L184.6,31.24a5.2,5.2,0,0,0,0,9.4l64.59,30.73a5.2,5.2,0,0,0,7.44-4.7V54.85h60.69c33,0,60.82,19.66,60.82,42.92h36.54C414.68,75.65,403.94,55.15,384.43,40.05Z"/><path class="cls-1" d="M257.27,371.31l-64.59-30.73a5.21,5.21,0,0,0-7.44,4.7V357.1H124.55c-33,0-60.82-19.65-60.82-42.92H27.19c0,22.13,10.75,42.62,30.25,57.72,18.13,14,42,21.74,67.11,21.74h60.69v13.1a5.2,5.2,0,0,0,7.44,4.7l64.59-30.73a5.2,5.2,0,0,0,0-9.4Z"/><circle class="cls-2" cx="219.24" cy="205.98" r="66.7"/><path class="cls-2" d="M233.13,215.63c-1.12-1-3.47-2.37-8.43-3.71V232a18.09,18.09,0,0,0,4.08-1.16,10.91,10.91,0,0,0,4.91-3.8,9.72,9.72,0,0,0,1.61-5.67C235.3,218.78,234.61,217,233.13,215.63Z"/><path class="cls-2" d="M207.23,194.83c1,.89,3,2.12,6.79,3.32V180a16.12,16.12,0,0,0-2.92.92,10.83,10.83,0,0,0-4.63,3.47,7.57,7.57,0,0,0-1.46,4.71C205,191.71,205.7,193.47,207.23,194.83Z"/><path class="cls-2" d="M219.24,139.28a66.7,66.7,0,1,0,66.7,66.7A66.69,66.69,0,0,0,219.24,139.28ZM242.73,233a21.74,21.74,0,0,1-9.47,7.61,30.63,30.63,0,0,1-8.56,2.24V251H214v-8.23a30.82,30.82,0,0,1-7.58-2.16,23.9,23.9,0,0,1-9.81-7.64,21.93,21.93,0,0,1-4.26-11.65l-.4-5.21h10.9l.35,4.55a11.08,11.08,0,0,0,2.2,6A13.41,13.41,0,0,0,211,230.8a18.16,18.16,0,0,0,3.05,1V209.37c-6.5-1.63-11.2-3.84-14.36-6.73-3.66-3.35-5.52-7.86-5.52-13.41a18.18,18.18,0,0,1,3.42-10.94,21.71,21.71,0,0,1,9-7.06,28.1,28.1,0,0,1,7.45-2.08V161H224.7v8.26a27.49,27.49,0,0,1,6.81,2.06,23.78,23.78,0,0,1,9.18,7.16,20.42,20.42,0,0,1,4.16,10.85l.43,5.19H234.4l-.39-4.39a9.59,9.59,0,0,0-2-5.25,13.11,13.11,0,0,0-5.1-3.86,15.74,15.74,0,0,0-2.16-.78v20.53l.18,0c7.33,1.69,12.5,3.95,15.8,6.94,3.65,3.29,5.5,7.85,5.5,13.57A20.29,20.29,0,0,1,242.73,233Z"/><path class="cls-2" d="M403.63,141.18a6.09,6.09,0,0,0-6.09,6.09V264.2a6.09,6.09,0,0,0,12.18,0V147.27A6.09,6.09,0,0,0,403.63,141.18Z"/><path class="cls-2" d="M34.1,141.42A6.09,6.09,0,0,0,28,147.51V264.44a6.09,6.09,0,0,0,12.18,0V147.51A6.09,6.09,0,0,0,34.1,141.42Z"/><polygon class="cls-1" points="219.83 204.02 218.89 203.8 218.89 204.46 218.28 204.31 218.28 205.38 218.89 205.52 218.89 206.14 219.83 206.36 219.83 205.74 220.44 205.88 220.44 204.78 219.83 204.64 219.83 204.02"/><path class="cls-1" d="M215.87,203.72c-5.56-1.37-9.45-3.08-11.88-5.25a11.77,11.77,0,0,1-3.85-9.34,12.41,12.41,0,0,1,2.4-7.6,15.77,15.77,0,0,1,6.64-5.06,23.52,23.52,0,0,1,7-1.69l2.05-.18v-1l-1.64.12a24.69,24.69,0,0,0-8.1,1.92,17,17,0,0,0-7,5.47,13.3,13.3,0,0,0-2.49,8.08A12.7,12.7,0,0,0,203,199c2.7,2.48,7,4.39,13.26,5.85l2.07.48v-1.06Z"/><path class="cls-1" d="M223.45,206.58c6.17,1.42,10.39,3.18,12.9,5.4s3.82,5.42,3.82,9.43a14.48,14.48,0,0,1-2.45,8.41,15.78,15.78,0,0,1-7,5.55,25.46,25.46,0,0,1-8.26,1.84l-2,.14v1l1.68-.1a27.11,27.11,0,0,0,9.19-2.05,16.93,16.93,0,0,0,7.4-5.89,15.57,15.57,0,0,0,2.6-9c0-4.28-1.31-7.63-3.89-10s-7.13-4.31-13.63-5.8l-3.35-.78v1.1Z"/><path class="cls-1" d="M218.89,238.87v7.22h.94v-7.2h0Z"/><path class="cls-1" d="M219.83,206.36l-.94-.22v30.5c.32,0,.62,0,.94,0Z"/><path class="cls-1" d="M216.18,237.1a25.11,25.11,0,0,1-7.14-1.83,18.29,18.29,0,0,1-7.51-5.71,15.87,15.87,0,0,1-3.17-8.56v-.06h-1.12a17.29,17.29,0,0,0,3.3,9.09,19.2,19.2,0,0,0,7.87,6.07,26.35,26.35,0,0,0,8.27,2l1.61.15v-1Z"/><path class="cls-1" d="M222.57,174.87a21.94,21.94,0,0,1,6.27,1.7,18,18,0,0,1,6.95,5.3,14.35,14.35,0,0,1,3.06,7.78H240a15.6,15.6,0,0,0-3.15-8.21,19,19,0,0,0-7.34-5.69,23.75,23.75,0,0,0-7.46-1.94l-1.59-.16v.95Z"/><path class="cls-1" d="M218.89,174.55v.73h.24c.24,0,.46,0,.7,0v-.77l.61.07v-.95l-.61-.06v-.5c-.24,0-.46,0-.7,0h-.24v.52l-.61,0v1Z"/><path class="cls-1" d="M219.83,173.09v-7.22h-.94v7.2h.24C219.37,173.06,219.59,173.09,219.83,173.09Z"/><path class="cls-1" d="M218.89,175.28V203.8l.94.22V175.3c-.24,0-.46,0-.7,0Z"/><path class="cls-1" d="M219.83,237.39v-.71c-.32,0-.62,0-.94,0v.76l-.61-.07v1l.61.06v.52l.94,0h0v-.54l.61,0v-1Z"/><path class="cls-1" d="M203.19,189.13a8.84,8.84,0,0,0,2.82,7.06c1.93,1.72,5.23,3.19,9.83,4.38V177.89a19.25,19.25,0,0,0-5.46,1.38,12.75,12.75,0,0,0-5.39,4.07A9.45,9.45,0,0,0,203.19,189.13Zm3.28-4.71A10.83,10.83,0,0,1,211.1,181,16.12,16.12,0,0,1,214,180v18.12c-3.82-1.2-5.79-2.43-6.79-3.32-1.53-1.36-2.22-3.12-2.22-5.7A7.57,7.57,0,0,1,206.47,184.42Z"/><path class="cls-1" d="M224.88,200.81l-.18,0V180.24a15.74,15.74,0,0,1,2.16.78,13.11,13.11,0,0,1,5.1,3.86,9.59,9.59,0,0,1,2,5.25l.39,4.39h10.88l-.43-5.19a20.42,20.42,0,0,0-4.16-10.85,23.78,23.78,0,0,0-9.18-7.16,27.49,27.49,0,0,0-6.81-2.06V161H214v8.15a28.1,28.1,0,0,0-7.45,2.08,21.71,21.71,0,0,0-9,7.06,18.18,18.18,0,0,0-3.42,10.94c0,5.55,1.86,10.06,5.52,13.41,3.16,2.89,7.86,5.1,14.36,6.73v22.42a18.16,18.16,0,0,1-3.05-1,13.41,13.41,0,0,1-5.55-4.18,11.08,11.08,0,0,1-2.2-6l-.35-4.55H192l.4,5.21a21.93,21.93,0,0,0,4.26,11.65,23.9,23.9,0,0,0,9.81,7.64,30.82,30.82,0,0,0,7.58,2.16V251H224.7v-8.08a30.63,30.63,0,0,0,8.56-2.24,21.74,21.74,0,0,0,9.47-7.61,20.29,20.29,0,0,0,3.45-11.71c0-5.72-1.85-10.28-5.5-13.57C237.38,204.76,232.21,202.5,224.88,200.81ZM241.22,232a19.94,19.94,0,0,1-8.69,7,29.65,29.65,0,0,1-9.65,2.25v7.91h-7v-8a28.93,28.93,0,0,1-8.66-2.23,22.12,22.12,0,0,1-9.09-7,20.2,20.2,0,0,1-3.9-10.71l-.25-3.23h7.23l.22,2.86a13,13,0,0,0,2.57,7,15.24,15.24,0,0,0,6.28,4.75,21.82,21.82,0,0,0,5.6,1.52V207.93l-.32-.08c-6.75-1.58-11.53-3.73-14.63-6.56-3.27-3-4.92-7-4.92-12.07a16.35,16.35,0,0,1,3.07-9.86,20,20,0,0,1,8.27-6.46,27.19,27.19,0,0,1,8.53-2.13v-8h7v8a26.35,26.35,0,0,1,7.87,2.14,22,22,0,0,1,8.49,6.61,18.59,18.59,0,0,1,3.79,9.89l.26,3.21h-7.22l-.25-2.73a11.41,11.41,0,0,0-2.42-6.21,15.14,15.14,0,0,0-5.8-4.4,18.89,18.89,0,0,0-4.72-1.37v24.24l1.59.37c7,1.62,11.92,3.74,15,6.51,3.25,2.93,4.89,7,4.89,12.22A18.46,18.46,0,0,1,241.22,232Z"/><path class="cls-1" d="M237.13,221.41c0-3.16-.91-5.49-2.79-7.15-2.08-1.83-5.94-3.41-11.46-4.68v24.54a22,22,0,0,0,6.62-1.56,12.46,12.46,0,0,0,5.7-4.46A11.46,11.46,0,0,0,237.13,221.41Zm-3.44,5.67a10.91,10.91,0,0,1-4.91,3.8A18.09,18.09,0,0,1,224.7,232V211.92c5,1.34,7.31,2.73,8.43,3.71,1.48,1.32,2.17,3.15,2.17,5.78A9.72,9.72,0,0,1,233.69,227.08Z"/><path class="cls-1" d="M204.5,183a10,10,0,0,0-1.92,6.15,9.43,9.43,0,0,0,3,7.52c2.1,1.87,5.75,3.45,10.84,4.7V177.21a20.5,20.5,0,0,0-6.31,1.5A13.35,13.35,0,0,0,204.5,183Zm5.88-3.71a19.25,19.25,0,0,1,5.46-1.38v22.68c-4.6-1.19-7.9-2.66-9.83-4.38a8.84,8.84,0,0,1-2.82-7.06,9.45,9.45,0,0,1,1.8-5.79A12.75,12.75,0,0,1,210.38,179.27Z"/><path class="cls-1" d="M224.47,202.59l-1.59-.37V178a18.89,18.89,0,0,1,4.72,1.37,15.14,15.14,0,0,1,5.8,4.4,11.41,11.41,0,0,1,2.42,6.21l.25,2.73h7.22l-.26-3.21a18.59,18.59,0,0,0-3.79-9.89,22,22,0,0,0-8.49-6.61,26.35,26.35,0,0,0-7.87-2.14v-8h-7v8a27.19,27.19,0,0,0-8.53,2.13,20,20,0,0,0-8.27,6.46,16.35,16.35,0,0,0-3.07,9.86c0,5,1.65,9.08,4.92,12.07,3.1,2.83,7.88,5,14.63,6.56l.32.08V234a21.82,21.82,0,0,1-5.6-1.52,15.24,15.24,0,0,1-6.28-4.75,13,13,0,0,1-2.57-7l-.22-2.86h-7.23l.25,3.23a20.2,20.2,0,0,0,3.9,10.71,22.12,22.12,0,0,0,9.09,7,28.93,28.93,0,0,0,8.66,2.23v8h7v-7.91a29.65,29.65,0,0,0,9.65-2.25,19.94,19.94,0,0,0,8.69-7,18.46,18.46,0,0,0,3.13-10.68c0-5.18-1.64-9.29-4.89-12.22C236.39,206.33,231.49,204.21,224.47,202.59Zm16.25,29.07a19.43,19.43,0,0,1-8.44,6.75,29.38,29.38,0,0,1-10,2.24v7.87h-5.82v-8a29.19,29.19,0,0,1-9-2.23,21.6,21.6,0,0,1-8.84-6.86,19.73,19.73,0,0,1-3.79-10.39l-.19-2.58h6l.18,2.29a13.46,13.46,0,0,0,2.69,7.29A15.81,15.81,0,0,0,210,233a22.36,22.36,0,0,0,6.45,1.64V207.45l-.8-.19c-6.63-1.56-11.33-3.66-14.35-6.42s-4.72-6.78-4.72-11.62a15.75,15.75,0,0,1,2.95-9.5,19.28,19.28,0,0,1,8-6.26,26.79,26.79,0,0,1,8.89-2.13v-7.9h5.82v7.95a26.32,26.32,0,0,1,8.23,2.15,21.45,21.45,0,0,1,8.26,6.43,18,18,0,0,1,3.66,9.58l.21,2.55h-6l-.2-2.18a12,12,0,0,0-2.55-6.54,15.64,15.64,0,0,0-6-4.58,19.92,19.92,0,0,0-5.58-1.51v25.43l2.06.48c6.92,1.59,11.73,3.67,14.72,6.36s4.69,6.77,4.69,11.77A17.88,17.88,0,0,1,240.72,231.66Z"/><path class="cls-1" d="M235.71,228.45a12.19,12.19,0,0,0,2-7c0-3.35-1-5.82-3-7.6-2.17-1.92-6.16-3.55-11.84-4.85l-.63-.15v26a23,23,0,0,0,7.46-1.66A13.3,13.3,0,0,0,235.71,228.45Zm-6.21,4.11a22,22,0,0,1-6.62,1.56V209.58c5.52,1.27,9.38,2.85,11.46,4.68,1.88,1.66,2.79,4,2.79,7.15a11.46,11.46,0,0,1-1.93,6.69A12.46,12.46,0,0,1,229.5,232.56Z"/><path class="cls-1" d="M224.33,203.19l-2.06-.48V177.28a19.92,19.92,0,0,1,5.58,1.51,15.64,15.64,0,0,1,6,4.58,12,12,0,0,1,2.55,6.54l.2,2.18h6l-.21-2.55a18,18,0,0,0-3.66-9.58,21.45,21.45,0,0,0-8.26-6.43,26.32,26.32,0,0,0-8.23-2.15v-7.95h-5.82v7.9a26.79,26.79,0,0,0-8.89,2.13,19.28,19.28,0,0,0-8,6.26,15.75,15.75,0,0,0-2.95,9.5c0,4.84,1.59,8.75,4.72,11.62s7.72,4.86,14.35,6.42l.8.19v27.22A22.36,22.36,0,0,1,210,233a15.81,15.81,0,0,1-6.52-4.94,13.46,13.46,0,0,1-2.69-7.29l-.18-2.29h-6l.19,2.58a19.73,19.73,0,0,0,3.79,10.39,21.6,21.6,0,0,0,8.84,6.86,29.19,29.19,0,0,0,9,2.23v8h5.82v-7.87a29.38,29.38,0,0,0,10-2.24,19.43,19.43,0,0,0,8.44-6.75,17.88,17.88,0,0,0,3-10.34c0-5-1.58-9-4.69-11.77S231.25,204.78,224.33,203.19Zm17.59,18.18a15.9,15.9,0,0,1-2.71,9.25,17.36,17.36,0,0,1-7.66,6.11,28.75,28.75,0,0,1-11.11,2.14v7.82h-2.16v-7.83a28.08,28.08,0,0,1-10.13-2.2,19.69,19.69,0,0,1-8.1-6.27,17.75,17.75,0,0,1-3.43-9.45l-.05-.61h2.35l.05.61a15.36,15.36,0,0,0,3.05,8.25,17.55,17.55,0,0,0,7.26,5.52,25.68,25.68,0,0,0,9,1.91V206l-2.21-.52q-9.39-2.21-13.53-6t-4.14-10.27v-.09a13.84,13.84,0,0,1,2.61-8.34,17.5,17.5,0,0,1,7.28-5.66,26.14,26.14,0,0,1,10-2v-7.84h2.16v7.86a24.63,24.63,0,0,1,9.31,2.08,19.45,19.45,0,0,1,7.56,5.87,16.15,16.15,0,0,1,3.29,8.62l.05.57H238.3l-.05-.52a13.82,13.82,0,0,0-2.94-7.49,17.24,17.24,0,0,0-6.72-5.13,22.23,22.23,0,0,0-8.15-1.79v28.83l3.48.81q9.83,2.25,13.91,5.94t4.09,10.41Z"/><path class="cls-1" d="M203,181.89a11.9,11.9,0,0,0-2.28,7.24v.09a11.19,11.19,0,0,0,3.64,8.79q3.65,3.24,12.24,5.26l1.65.39V175.3a24.13,24.13,0,0,0-8.86,1.73A15.18,15.18,0,0,0,203,181.89Zm13.42-4.68v24.14c-5.09-1.25-8.74-2.83-10.84-4.7a9.43,9.43,0,0,1-3-7.52A10,10,0,0,1,204.5,183a13.35,13.35,0,0,1,5.64-4.27A20.5,20.5,0,0,1,216.45,177.21Z"/><path class="cls-1" d="M237.22,229.47a14,14,0,0,0,2.35-8.06v0q0-5.75-3.62-8.93t-12.64-5.26l-2.87-.67v30.15a26.48,26.48,0,0,0,10-1.85A15.18,15.18,0,0,0,237.22,229.47Zm-14.95,5.31v-26l.63.15c5.68,1.3,9.67,2.93,11.84,4.85,2,1.78,3,4.25,3,7.6a12.19,12.19,0,0,1-2,7,13.3,13.3,0,0,1-6,4.67A23,23,0,0,1,222.27,234.78Z"/><polygon class="cls-1" points="218.28 204.31 218.89 204.46 218.89 203.8 218.28 203.66 218.28 204.31"/><path class="cls-1" d="M216.63,203.27q-8.59-2-12.24-5.26a11.19,11.19,0,0,1-3.64-8.79v-.09a11.9,11.9,0,0,1,2.28-7.24,15.18,15.18,0,0,1,6.39-4.86,24.13,24.13,0,0,1,8.86-1.73v-.7l-2.05.18a23.52,23.52,0,0,0-7,1.69,15.77,15.77,0,0,0-6.64,5.06,12.41,12.41,0,0,0-2.4,7.6,11.77,11.77,0,0,0,3.85,9.34c2.43,2.17,6.32,3.88,11.88,5.25l2.41.59v-.65Z"/><path class="cls-1" d="M219.83,238.35v.54l.61,0v-.55Z"/><path class="cls-1" d="M223.92,205l-3.48-.81v.62l3.35.78c6.5,1.49,11,3.39,13.63,5.8s3.89,5.68,3.89,10a15.57,15.57,0,0,1-2.6,9,16.93,16.93,0,0,1-7.4,5.89,27.11,27.11,0,0,1-9.19,2.05l-1.68.1v.55a28.75,28.75,0,0,0,11.11-2.14,17.36,17.36,0,0,0,7.66-6.11,15.9,15.9,0,0,0,2.71-9.25v-.05q0-6.72-4.09-10.41T223.92,205Z"/><path class="cls-1" d="M218.28,175.3v28.36l.61.14V175.28Z"/><polygon class="cls-1" points="219.83 204.64 220.44 204.78 220.44 204.16 219.83 204.02 219.83 204.64"/><path class="cls-1" d="M218.89,173.59v-.52c-.21,0-.41,0-.61,0v.54Z"/><path class="cls-1" d="M219.83,204l.61.14V175.33c-.2,0-.4,0-.61,0Z"/><path class="cls-1" d="M219.83,173.59l.61.06v-.53l-.61,0Z"/><path class="cls-1" d="M222,173.81a23.75,23.75,0,0,1,7.46,1.94,19,19,0,0,1,7.34,5.69,15.6,15.6,0,0,1,3.15,8.21h-1.13a14.35,14.35,0,0,0-3.06-7.78,18,18,0,0,0-6.95-5.3,21.94,21.94,0,0,0-6.27-1.7l-2.13-.27v.73a22.23,22.23,0,0,1,8.15,1.79,17.24,17.24,0,0,1,6.72,5.13,13.82,13.82,0,0,1,2.94,7.49l.05.52h2.35l-.05-.57a16.15,16.15,0,0,0-3.29-8.62,19.45,19.45,0,0,0-7.56-5.87,24.63,24.63,0,0,0-9.31-2.08v.53Z"/><path class="cls-1" d="M219.83,174.53v.77c.21,0,.41,0,.61,0v-.73Z"/><path class="cls-1" d="M218.89,175.28v-.73l-.61,0v.7Z"/><path class="cls-1" d="M219.83,246.09h-.94v-7.22h-.61v7.83h2.16v-7.82l-.61,0Z"/><path class="cls-1" d="M223.31,207.18q9,2.06,12.64,5.26t3.62,8.93v0a14,14,0,0,1-2.35,8.06,15.18,15.18,0,0,1-6.77,5.34,26.48,26.48,0,0,1-10,1.85v.69l2-.14a25.46,25.46,0,0,0,8.26-1.84,15.78,15.78,0,0,0,7-5.55,14.48,14.48,0,0,0,2.45-8.41c0-4-1.28-7.19-3.82-9.43s-6.73-4-12.9-5.4l-3-.7v.63Z"/><polygon class="cls-1" points="220.44 205.88 219.83 205.74 219.83 206.36 220.44 206.5 220.44 205.88"/><path class="cls-1" d="M218.89,165.87h.94v7.22l.61,0v-7.86h-2.16v7.84c.2,0,.4,0,.61,0Z"/><path class="cls-1" d="M218.89,237.4v-.76l-.61,0v.71Z"/><path class="cls-1" d="M218.89,206.14l-.61-.14v30.62l.61,0Z"/><path class="cls-1" d="M219.88,236.69c.19,0,.37,0,.56,0V206.51l-.61-.15v30.32Z"/><polygon class="cls-1" points="218.89 205.52 218.28 205.38 218.28 206 218.89 206.14 218.89 205.52"/><path class="cls-1" d="M218.89,238.35l-.61-.06v.57h.61Z"/><path class="cls-1" d="M219.88,236.69h0v.71l.61,0v-.69C220.25,236.67,220.07,236.69,219.88,236.69Z"/><path class="cls-1" d="M216.67,238.14a26.35,26.35,0,0,1-8.27-2,19.2,19.2,0,0,1-7.87-6.07,17.29,17.29,0,0,1-3.3-9.09h1.12V221a15.87,15.87,0,0,0,3.17,8.56,18.29,18.29,0,0,0,7.51,5.71,25.11,25.11,0,0,0,7.14,1.83l2.1.23v-.71a25.68,25.68,0,0,1-9-1.91,17.55,17.55,0,0,1-7.26-5.52,15.36,15.36,0,0,1-3.05-8.25l-.05-.61h-2.35l.05.61a17.75,17.75,0,0,0,3.43,9.45,19.69,19.69,0,0,0,8.1,6.27,28.08,28.08,0,0,0,10.13,2.2v-.57Z"/><path class="cls-1" d="M216.21,204.89C210,203.43,205.65,201.52,203,199a12.7,12.7,0,0,1-3.94-9.81,13.3,13.3,0,0,1,2.49-8.08,17,17,0,0,1,7-5.47,24.69,24.69,0,0,1,8.1-1.92l1.64-.12v-.54a26.14,26.14,0,0,0-10,2,17.5,17.5,0,0,0-7.28,5.66,13.84,13.84,0,0,0-2.61,8.34v.09q0,6.5,4.14,10.27t13.53,6l2.21.52v-.63Z"/><path class="cls-1" d="M428.74,108.54H9.74A9.74,9.74,0,0,0,0,118.28V293.67a9.74,9.74,0,0,0,9.74,9.75h419a9.75,9.75,0,0,0,9.75-9.75V118.28A9.75,9.75,0,0,0,428.74,108.54ZM40.19,264.44a6.09,6.09,0,0,1-12.18,0V147.51a6.09,6.09,0,1,1,12.18,0Zm179.05,8.23A66.7,66.7,0,1,1,285.94,206,66.69,66.69,0,0,1,219.24,272.67Zm190.48-8.47a6.09,6.09,0,0,1-12.18,0V147.27a6.09,6.09,0,0,1,12.18,0Z"/></g></g></svg>