<svg xmlns="http://www.w3.org/2000/svg" viewBox="0 0 600 600"><defs><style>.cls-1{fill:#76ff03;}.cls-2{fill:#f44336;}.cls-3{fill:#00aeef;}</style></defs><g id="Layer_2" data-name="Layer 2"><g id="Layer_1-2" data-name="Layer 1"><path class="cls-1" d="M561.59,215l23.78-7.72C546.31,87,433.32,0,300,0V25C422.21,25,525.78,104.73,561.59,215Z"/><path class="cls-2" d="M38.41,385A274.81,274.81,0,0,1,25,300h0C25,148.12,148.12,25,300,25V0C134.31,0,0,134.31,0,300H0a299.77,299.77,0,0,0,14.63,92.72C53.69,513,166.68,600,300,600V575C177.79,575,74.22,495.27,38.41,385Z"/><path class="cls-3" d="M561.59,215A274.81,274.81,0,0,1,575,300h0c0,151.88-123.12,275-275,275v25c165.69,0,300-134.31,300-300h0a299.77,299.77,0,0,0-14.63-92.72h.11l-23.89,7.38"/></g></g></svg>