<svg xmlns="http://www.w3.org/2000/svg" viewBox="0 0 350.37 407.64"><defs><style>.cls-1{fill:#231f20;}</style></defs><g id="Layer_2" data-name="Layer 2"><g id="Layer_1-2" data-name="Layer 1"><path class="cls-1" d="M282.32,407.64H68.05A68.13,68.13,0,0,1,0,339.58V68.05A68.13,68.13,0,0,1,68.05,0H282.32a68.13,68.13,0,0,1,68.05,68.05V339.58A68.13,68.13,0,0,1,282.32,407.64ZM68.05,24A44.1,44.1,0,0,0,24,68.05V339.58a44.11,44.11,0,0,0,44.05,44.06H282.32a44.11,44.11,0,0,0,44.05-44.06V68.05a44.1,44.1,0,0,0-44.05-44Z"/><path class="cls-1" d="M275.74,187.22H140.49a10,10,0,0,1,0-20H275.74a10,10,0,0,1,0,20Z"/><path class="cls-1" d="M275.74,240.42H140.49a10,10,0,0,1,0-20H275.74a10,10,0,0,1,0,20Z"/><path class="cls-1" d="M275.74,134H140.49a10,10,0,1,1,0-20H275.74a10,10,0,0,1,0,20Z"/><path class="cls-1" d="M273.92,293.61H138.67a10,10,0,1,1,0-20H273.92a10,10,0,0,1,0,20Z"/><path class="cls-1" d="M85.27,145.89A10,10,0,0,1,78,142.71L67.57,131.57A10,10,0,0,1,82.2,117.93l10.38,11.14a10,10,0,0,1-7.31,16.82Z"/><path class="cls-1" d="M85.27,145.89a10,10,0,0,1-7.11-17l23.47-23.73a10,10,0,1,1,14.22,14.06L92.38,142.92A10,10,0,0,1,85.27,145.89Z"/><path class="cls-1" d="M85,199.08a10,10,0,0,1-7.32-3.18L67.32,184.77a10,10,0,1,1,14.62-13.64l10.39,11.13A10,10,0,0,1,85,199.08Z"/><path class="cls-1" d="M85,199.08a10,10,0,0,1-7.11-17l23.46-23.73a10,10,0,0,1,14.22,14.07L92.12,196.12A10,10,0,0,1,85,199.08Z"/><path class="cls-1" d="M87.8,252.28a10,10,0,0,1-7.31-3.18L70.1,238a10,10,0,0,1,14.63-13.64l10.39,11.14a10,10,0,0,1-7.32,16.82Z"/><path class="cls-1" d="M87.8,252.28a10,10,0,0,1-7.11-17l23.47-23.73a10,10,0,1,1,14.22,14.06L94.91,249.31A10,10,0,0,1,87.8,252.28Z"/><path class="cls-1" d="M90.21,305.47a9.94,9.94,0,0,1-7.31-3.18L72.51,291.16a10,10,0,1,1,14.63-13.64l10.38,11.13a10,10,0,0,1-7.31,16.82Z"/><path class="cls-1" d="M90.21,305.47a10,10,0,0,1-7.11-17l23.47-23.72a10,10,0,1,1,14.22,14.06L97.32,302.51A10,10,0,0,1,90.21,305.47Z"/></g></g></svg>