<svg xmlns="http://www.w3.org/2000/svg" viewBox="0 0 315.2 389.91"><g id="Layer_2" data-name="Layer 2"><g id="Layer_1-2" data-name="Layer 1"><path d="M84.17,196.2C29.5,146.16,36.37,72.2,82,30c44.24-40.9,110.07-39.93,153.33,2.67,43.8,43.13,48.08,114.12-4.32,162.92,1.15.7,2.16,1.45,3.27,2,8.25,4,16.34,8.33,24.81,11.74,29.11,11.74,45.55,34,52,63.74,2.84,13,3.07,26.68,4.06,40.08.17,2.26-1.22,5.2-2.84,6.95-33.25,35.79-73.64,59-122,67-47.23,7.87-91.75-.89-133.48-24.16C36.91,351.8,19.42,337.54,3.7,321a12.32,12.32,0,0,1-3.64-8.83c-.62-24.6,3.48-48.09,16.25-69.53a75.51,75.51,0,0,1,34-30.55C61.52,207,72.62,201.64,84.17,196.2Zm126.61,13.58c-35.33,18.76-71,18.89-106.32.3a79,79,0,0,1-6.81,4.16q-19.12,9.16-38.34,18.13a55.46,55.46,0,0,0-23.07,20c-8.81,13.27-12,28.26-14,43.77-1.09,8.58,1.66,14.46,8.09,20.3C60.29,343.66,94.75,361.58,135,366.3c60.94,7.15,112.61-13.17,155.93-55.87a9.43,9.43,0,0,0,2.32-6.08,101.69,101.69,0,0,0-7.27-39c-5.9-14.74-15.44-26.28-30.14-33.13q-19.68-9.15-39.23-18.58A53.21,53.21,0,0,1,210.78,209.78ZM157.08,22c-51.12.15-89.78,39-89.62,90.1s38.86,89.62,90.12,89.56c51-.07,89.89-39.08,89.68-90.06S208.15,21.86,157.08,22Z"/></g></g></svg>