<svg xmlns="http://www.w3.org/2000/svg" viewBox="0 0 449.93 383.64"><g id="Layer_2" data-name="Layer 2"><g id="Layer_1-2" data-name="Layer 1"><path d="M25,358.62h5.4q201.87,0,403.75,0a29.91,29.91,0,0,1,6.21.46,12.07,12.07,0,0,1,9.59,12.77,12.31,12.31,0,0,1-11,11.64,34.5,34.5,0,0,1-3.94.12H15.1C4.52,383.63,0,379.15,0,368.69V14.3C0,6.44,3.79,1.36,10.49.18A12.29,12.29,0,0,1,24.54,9.71a33,33,0,0,1,.4,6.22q0,168.63,0,337.28Z"/><path d="M159.33,178.89l-23.71,31.54q-34,45.24-68,90.48c-3.54,4.71-8.09,6.74-13.79,5.36-5.18-1.26-8.19-4.9-9.21-10.09-.84-4.23.95-7.68,3.41-10.94q19.71-26.13,39.37-52.32,28.59-38,57.16-76c6.56-8.73,12.26-9.78,21.29-3.84q42.33,27.84,84.64,55.74c2.1,1.39,3.41,1.31,5.38-.26Q333,147,410.28,85.56C416,81,422.56,80.79,427.4,85a12.43,12.43,0,0,1,2.49,15.85,17.51,17.51,0,0,1-4,4.27q-43.33,34.59-86.73,69.09-37.47,29.82-74.9,59.66c-7.57,6-11.65,6.27-19.85.87l-81.92-53.9C161.57,180.25,160.63,179.7,159.33,178.89Z"/></g></g></svg>