<svg xmlns="http://www.w3.org/2000/svg" viewBox="0 0 360 338.22"><defs><style>.cls-1{fill:#fff;}.cls-2{fill:none;}</style></defs><g id="Layer_2" data-name="Layer 2"><g id="Layer_1-2" data-name="Layer 1"><path class="cls-1" d="M210.2,4.28V54.74a3.77,3.77,0,0,1-5.4,3.4l-53-25.23a3.77,3.77,0,0,1,0-6.81L204.8.87A3.78,3.78,0,0,1,210.2,4.28Z"/><path class="cls-1" d="M206.42,59a4.22,4.22,0,0,1-1.83-.42l-53-25.22a4.27,4.27,0,0,1,0-7.72l53-25.23a4.27,4.27,0,0,1,6.11,3.86V54.74A4.27,4.27,0,0,1,206.42,59Zm0-58a3.33,3.33,0,0,0-1.4.32L152,26.55a3.27,3.27,0,0,0,0,5.91l53,25.23a3.28,3.28,0,0,0,4.68-2.95V4.28A3.29,3.29,0,0,0,206.42,1Z"/><path class="cls-1" d="M340.46,80.27h-30c0-19.1-22.87-35.24-49.93-35.24H192V15h68.53c20.65,0,40.21,6.34,55.09,17.85C331.64,45.28,340.46,62.11,340.46,80.27Z"/><path class="cls-1" d="M170.89,194.3a16.19,16.19,0,0,1-6.65-5.15,14.66,14.66,0,0,1-2.82-7.75l0-.51h1.93l0,.51a12.67,12.67,0,0,0,2.51,6.77,14.45,14.45,0,0,0,6,4.53,21.85,21.85,0,0,0,8.7,1.62,22.08,22.08,0,0,0,8.68-1.54,12.39,12.39,0,0,0,5.56-4.38,11.54,11.54,0,0,0,1.93-6.62v0a9.28,9.28,0,0,0-3-7.33c-2-1.75-5.44-3.19-10.38-4.32l-5.94-1.39c-5.15-1.21-8.85-2.84-11.12-4.92a10.87,10.87,0,0,1-3.39-8.43v-.07a11.34,11.34,0,0,1,2.14-6.85,14.33,14.33,0,0,1,6-4.65,21.82,21.82,0,0,1,8.89-1.7,20.83,20.83,0,0,1,8.72,1.76,16.07,16.07,0,0,1,6.21,4.82,13.27,13.27,0,0,1,2.7,7.08l0,.46h-1.93l0-.42a11.32,11.32,0,0,0-2.42-6.15,14.26,14.26,0,0,0-5.51-4.21,18.85,18.85,0,0,0-7.78-1.52,20.17,20.17,0,0,0-8,1.44,12.44,12.44,0,0,0-5.25,4,9.71,9.71,0,0,0-1.87,5.94v.07a9.19,9.19,0,0,0,3,7.22q3,2.66,10.05,4.32l6,1.39q8.06,1.84,11.42,4.88c2.24,2,3.35,4.87,3.35,8.55v0a13.1,13.1,0,0,1-2.21,7.6,14.35,14.35,0,0,1-6.29,5,24,24,0,0,1-9.63,1.77A23.77,23.77,0,0,1,170.89,194.3Zm8.32-58.62H181v66.86h-1.77Z"/><path class="cls-1" d="M183,204.54h-5.77V198a23.66,23.66,0,0,1-7.12-1.83,18.1,18.1,0,0,1-7.45-5.78,16.64,16.64,0,0,1-3.21-8.8l-.2-2.66h5.94l.18,2.35a10.49,10.49,0,0,0,2.11,5.72,12.45,12.45,0,0,0,5.15,3.9,17.45,17.45,0,0,0,4.6,1.24V170.71l-.27-.06c-5.54-1.3-9.46-3.06-12-5.39a12.85,12.85,0,0,1-4-9.91,13.42,13.42,0,0,1,2.52-8.09A16.4,16.4,0,0,1,170.2,142a22.55,22.55,0,0,1,7-1.75v-6.52H183v6.58a21.46,21.46,0,0,1,6.47,1.76,18.1,18.1,0,0,1,7,5.42,15.36,15.36,0,0,1,3.11,8.13l.22,2.63h-5.93l-.21-2.24a9.33,9.33,0,0,0-2-5.1,12.2,12.2,0,0,0-4.76-3.61,14.82,14.82,0,0,0-3.88-1.12V166l1.31.3c5.76,1.32,9.79,3.07,12.31,5.34s4,5.78,4,10a15.16,15.16,0,0,1-2.56,8.76,16.35,16.35,0,0,1-7.14,5.72A24.36,24.36,0,0,1,183,198Zm0-32.48v20.15a18,18,0,0,0,5.44-1.27,10.29,10.29,0,0,0,4.68-3.67,9.39,9.39,0,0,0,1.59-5.49,7.33,7.33,0,0,0-2.3-5.87C190.68,174.4,187.52,173.11,183,172.06Zm-5.77-26a16.14,16.14,0,0,0-4.49,1.13,10.53,10.53,0,0,0-4.42,3.34,7.73,7.73,0,0,0-1.48,4.76,7.28,7.28,0,0,0,2.32,5.8c1.58,1.4,4.29,2.61,8.07,3.59Z"/><path class="cls-1" d="M182.48,204h-4.77v-6.53a24.12,24.12,0,0,1-7.42-1.83h0a17.76,17.76,0,0,1-7.25-5.63,16.18,16.18,0,0,1-3.11-8.54l-.16-2.12h4.93l.15,1.89a11,11,0,0,0,2.21,6,13,13,0,0,0,5.35,4.06,18.64,18.64,0,0,0,5.3,1.35V170.32l-.66-.16c-5.45-1.28-9.3-3-11.78-5.27a12.36,12.36,0,0,1-3.88-9.53,13,13,0,0,1,2.43-7.81,15.76,15.76,0,0,1,6.58-5.14,22.28,22.28,0,0,1,7.31-1.75v-6.48h4.77v6.53a21.3,21.3,0,0,1,6.76,1.76,17.58,17.58,0,0,1,6.78,5.28,14.8,14.8,0,0,1,3,7.86l.17,2.09h-4.93l-.16-1.78a9.83,9.83,0,0,0-2.1-5.37,12.81,12.81,0,0,0-4.94-3.76,16.15,16.15,0,0,0-4.59-1.24v20.87l1.7.4c5.68,1.3,9.63,3,12.08,5.23s3.85,5.55,3.85,9.66a14.65,14.65,0,0,1-2.48,8.48,15.8,15.8,0,0,1-6.92,5.54,24.33,24.33,0,0,1-8.23,1.85Zm0-32.61v21.33a19.28,19.28,0,0,0,6.13-1.36,11,11,0,0,0,4.91-3.84,10,10,0,0,0,1.67-5.78,7.79,7.79,0,0,0-2.47-6.24c-1.78-1.58-5.05-2.92-9.72-4Zm-4.77-25.94a17.27,17.27,0,0,0-5.18,1.23,11,11,0,0,0-4.63,3.5,8.26,8.26,0,0,0-1.58,5.06,7.71,7.71,0,0,0,2.49,6.17c1.72,1.54,4.72,2.84,8.9,3.86Z"/><path class="cls-1" d="M184.48,206h-8.77v-6.76a25,25,0,0,1-6.22-1.77,19.69,19.69,0,0,1-8.06-6.27,18.18,18.18,0,0,1-3.5-9.57l-.32-4.28h8.95l.28,3.74a9.17,9.17,0,0,0,1.81,4.93,11,11,0,0,0,4.56,3.43,15.25,15.25,0,0,0,2.5.81V171.9c-5.33-1.35-9.19-3.16-11.79-5.53a14.26,14.26,0,0,1-4.53-11,14.93,14.93,0,0,1,2.81-9,17.92,17.92,0,0,1,7.4-5.79,23.29,23.29,0,0,1,6.11-1.71v-6.69h8.77V139a23,23,0,0,1,5.59,1.69,19.61,19.61,0,0,1,7.54,5.88,16.79,16.79,0,0,1,3.41,8.91l.36,4.26h-8.93l-.33-3.6a7.79,7.79,0,0,0-1.68-4.31,10.74,10.74,0,0,0-4.19-3.17,13.71,13.71,0,0,0-1.77-.64v16.86l.15,0c6,1.38,10.26,3.24,13,5.69,3,2.7,4.51,6.45,4.51,11.15a16.66,16.66,0,0,1-2.83,9.61,17.83,17.83,0,0,1-7.77,6.25,24.84,24.84,0,0,1-7,1.83Zm-4.77-4h.77v-6.35l1.88-.11a22.29,22.29,0,0,0,7.55-1.68,13.88,13.88,0,0,0,6.07-4.84,12.69,12.69,0,0,0,2.13-7.35c0-3.52-1.07-6.27-3.19-8.18s-5.85-3.54-11.19-4.76l-3.25-.76V143.29l2.25.28a18.25,18.25,0,0,1,5.15,1.39,14.84,14.84,0,0,1,5.71,4.36,11.74,11.74,0,0,1,2.51,6.38H197a12.8,12.8,0,0,0-2.59-6.73,15.63,15.63,0,0,0-6-4.68,19.41,19.41,0,0,0-6.13-1.59l-1.81-.18v-6.34h-.77v6.34l-1.85.14a20.1,20.1,0,0,0-6.65,1.58,13.92,13.92,0,0,0-5.77,4.48,10.89,10.89,0,0,0-2.05,6.64,10.46,10.46,0,0,0,3.23,8.06c2.22,2,5.78,3.6,10.89,4.8l2.2.51v26.18l-2.22-.25a20.56,20.56,0,0,1-5.87-1.5,15,15,0,0,1-6.16-4.69,13.08,13.08,0,0,1-2.61-7v-.05h-.93a14.2,14.2,0,0,0,2.72,7.46,15.78,15.78,0,0,0,6.46,5,21.76,21.76,0,0,0,6.79,1.68l1.82.16Zm.77-7.14v-26l3,.7c5.06,1.16,8.52,2.61,10.59,4.43a9.83,9.83,0,0,1,3.14,7.74,11.83,11.83,0,0,1-2,6.9,13,13,0,0,1-5.77,4.56,20.86,20.86,0,0,1-6.78,1.51Zm4-20.92v16.53a15,15,0,0,0,3.35-.95,8.94,8.94,0,0,0,4-3.13,8,8,0,0,0,1.33-4.65A5.85,5.85,0,0,0,191.4,177C190.48,176.23,188.55,175.09,184.48,174Zm-4.77-6.12-2.48-.61c-4.56-1.12-7.75-2.53-9.75-4.31a9.63,9.63,0,0,1-3.16-7.66,10.12,10.12,0,0,1,2-6.24,13,13,0,0,1,5.45-4.16,19.07,19.07,0,0,1,5.79-1.38l2.18-.2Zm-4-20.05a13.14,13.14,0,0,0-2.39.75,9,9,0,0,0-3.81,2.85,6.25,6.25,0,0,0-1.19,3.87,5.75,5.75,0,0,0,1.82,4.68,15.18,15.18,0,0,0,5.57,2.72Z"/><path class="cls-1" d="M152.58,333.94V283.48a3.78,3.78,0,0,1,5.4-3.41l53,25.23a3.78,3.78,0,0,1,0,6.82l-53,25.23A3.78,3.78,0,0,1,152.58,333.94Z"/><path class="cls-1" d="M156.36,338.22a4.31,4.31,0,0,1-4.28-4.28V283.48a4.28,4.28,0,0,1,6.11-3.86l53,25.23a4.27,4.27,0,0,1,0,7.72l-53,25.23A4.22,4.22,0,0,1,156.36,338.22Zm0-58a3.32,3.32,0,0,0-1.75.5,3.26,3.26,0,0,0-1.53,2.77v50.46a3.28,3.28,0,0,0,4.69,3l53-25.23a3.28,3.28,0,0,0,0-5.92l-53-25.23A3.36,3.36,0,0,0,156.36,280.21Z"/><path class="cls-1" d="M170.78,323.19H102.26c-20.65,0-40.22-6.34-55.1-17.86-16-12.39-24.84-29.22-24.84-47.39h30c0,19.11,22.87,35.25,49.94,35.25h68.52Z"/><circle class="cls-2" cx="180" cy="169.11" r="54.76"/><path class="cls-1" d="M352,89.11H8a8,8,0,0,0-8,8v144a8,8,0,0,0,8,8H352a8,8,0,0,0,8-8v-144A8,8,0,0,0,352,89.11Zm-319,128a5,5,0,0,1-10,0v-96a5,5,0,0,1,10,0Zm147,6.76a54.76,54.76,0,1,1,54.76-54.76A54.76,54.76,0,0,1,180,223.87Zm156.38-7a5,5,0,0,1-10,0v-96a5,5,0,1,1,10,0Z"/></g></g></svg>