<svg xmlns="http://www.w3.org/2000/svg" width="18" height="18" fill="none" viewBox="0 0 18 18">
  <path fill="#fff" d="M9.66 7.9c-.44-.11-.88-.33-1.21-.66-.33-.11-.44-.44-.44-.66 0-.22.11-.55.33-.66.33-.22.66-.44.99-.33.66 0 1.21.33 1.54.77l.99-1.32c-.33-.33-.66-.55-.99-.77-.33-.22-.77-.33-1.21-.33V2.4H8.34v1.54c-.55.11-1.1.44-1.54.88-.44.55-.77 1.21-.66 1.87 0 .66.22 1.32.66 1.76.55.55 1.32.88 1.98 1.21.33.11.77.33 1.1.55.22.22.33.55.33.88 0 .33-.11.66-.33.99-.33.33-.77.44-1.1.44-.44 0-.99-.11-1.32-.44-.33-.22-.66-.55-.88-.88l-1.1 1.21c.33.44.66.77 1.1 1.1.55.33 1.21.66 1.87.66v1.43h1.21v-1.65c.66-.11 1.21-.44 1.65-.88.55-.55.88-1.43.88-2.2 0-.66-.22-1.43-.77-1.87-.55-.55-1.1-.88-1.76-1.1zM9 .2C4.16.2.2 4.16.2 9c0 4.84 3.96 8.8 8.8 8.8 4.84 0 8.8-3.96 8.8-8.8C17.8 4.16 13.84.2 9 .2zm0 16.39c-4.18 0-7.59-3.41-7.59-7.59S4.82 1.41 9 1.41 16.59 4.82 16.59 9 13.18 16.59 9 16.59z"/>
</svg>
