<svg xmlns="http://www.w3.org/2000/svg" width="20" height="14" fill="none" viewBox="0 0 20 14">
  <path fill="#fff" d="M4.163 13.875a3.77 3.77 0 01-.99-.13A3.85 3.85 0 01.506 9.061l1.601-6.077A3.809 3.809 0 013.888.627a3.733 3.733 0 014.239.346c.407.333.74.746.98 1.214h1.787A3.774 3.774 0 0113.259.256a3.733 3.733 0 012.853.37 3.83 3.83 0 011.78 2.345l1.602 6.091a3.85 3.85 0 01-2.674 4.696 3.734 3.734 0 01-2.853-.371 3.809 3.809 0 01-1.78-2.345l-.124-.605H7.936l-.158.592A3.809 3.809 0 016 13.373a3.754 3.754 0 01-1.836.502zM5.758 1.5a2.4 2.4 0 00-1.182.316 2.475 2.475 0 00-1.142 1.506L1.832 9.399a2.475 2.475 0 001.705 3.018 2.36 2.36 0 001.802-.233 2.433 2.433 0 001.141-1.506l.426-1.616h6.188l.42 1.616a2.46 2.46 0 001.14 1.506 2.379 2.379 0 001.808.233A2.461 2.461 0 0018.162 9.4l-1.602-6.077a2.441 2.441 0 00-1.135-1.506 2.379 2.379 0 00-1.808-.234 2.44 2.44 0 00-1.63 1.527l-.164.453H8.178l-.165-.453a2.448 2.448 0 00-1.636-1.527 2.393 2.393 0 00-.619-.082z" opacity=".4"/>
  <path fill="#fff" d="M5.875 7a1.375 1.375 0 110-2.75 1.375 1.375 0 010 2.75zM14.125 4.938a.687.687 0 100-1.375.687.687 0 000 1.374zM14.125 7.688a.687.687 0 100-1.375.687.687 0 000 1.375zM12.75 6.313a.687.687 0 100-1.375.687.687 0 000 1.375zM15.5 6.313a.687.687 0 100-1.375.687.687 0 000 1.375z"/>
</svg>
