<svg xmlns="http://www.w3.org/2000/svg" width="22" height="22" fill="none" viewBox="0 0 22 22">
  <path fill="#fff" d="M5.5 6.875h4.813V8.25H5.5V6.875z"/>
  <path fill="#fff" d="M19.535 5.5l-3.438-3.438-.972.973 2.063 2.062V8.25a1.376 1.376 0 001.375 1.375v7.219a1.032 1.032 0 01-2.063 0V11a.687.687 0 00-.688-.688h-2.75V3.439a.687.687 0 00-.687-.688H3.437a.688.688 0 00-.687.688v14.437H1.375v1.375h13.063v-1.375h-1.376v-6.188h2.063v5.088a2.45 2.45 0 001.9 2.423 2.41 2.41 0 002.913-2.354V6.472c0-.365-.145-.714-.403-.972zm-7.848 12.375H4.125V4.125h7.563v13.75z"/>
</svg>
