<svg xmlns="http://www.w3.org/2000/svg" width="22" height="22" fill="none" viewBox="0 0 22 22">
  <g clip-path="url(#clip0)">
    <path fill="#fff" d="M21.249 8.239l-1.502-1.48-6.093 6.114c-.072.2-.172.365-.3.494-.287.286-.637.4-1.052.343a1.214 1.214 0 01-.944-.365.967.967 0 01-.279-.45l-.794-.794c-.028.043-.418.475-1.169 1.298-.75.822-1.162 1.27-1.234 1.34-.286.287-.643.401-1.072.344a1.213 1.213 0 01-.944-.365.968.968 0 01-.28-.45l-.107-.108-2.617 2.618a.352.352 0 01-.054.043.351.351 0 00-.053.043v2.36h17.85c.372 0 .694.136.966.407.272.272.407.598.407.977s-.135.7-.407.965a1.337 1.337 0 01-.966.397H1.382c-.387 0-.712-.132-.977-.397a1.327 1.327 0 01-.397-.976V1.373c0-.372.133-.694.397-.965C.67.136.992 0 1.371 0s.704.136.976.408c.272.271.408.593.408.965v11.908l1.459-1.46c.057-.17.15-.321.279-.45.257-.257.572-.379.944-.364.414-.043.765.071 1.05.343.13.129.23.3.301.515l.065.064L9.02 9.762a1.214 1.214 0 011.223-.815c.429-.043.779.071 1.05.343.13.129.23.3.301.515l.751.75 5.6-5.599-1.459-1.459c-.014-.515.143-.765.472-.75h4.334a.73.73 0 01.483.203.73.73 0 01.204.483v4.334c.014.343-.23.5-.73.472z"/>
  </g>
  <defs>
    <clipPath id="clip0">
      <path fill="#fff" d="M0 0h22v21.97H0z"/>
    </clipPath>
  </defs>
</svg>
