<svg xmlns="http://www.w3.org/2000/svg" width="22" height="20" fill="none" viewBox="0 0 22 20">
  <path fill="#fff" fill-rule="evenodd" d="M11 3.528l8.25 8.25v5.784a2.062 2.062 0 01-2.063 2.063H4.813a2.062 2.062 0 01-2.062-2.063v-5.784L11 3.528zm6.875-1.09V7.25l-2.75-2.75V2.437a.687.687 0 01.688-.687h1.374a.687.687 0 01.688.688z" clip-rule="evenodd"/>
  <path fill="#fff" fill-rule="evenodd" d="M10.028 1.062a1.375 1.375 0 011.944 0l9.14 9.139a.688.688 0 01-.974.973L11 2.034l-9.138 9.14a.688.688 0 11-.974-.973l9.14-9.139z" clip-rule="evenodd"/>
</svg>
