<svg xmlns="http://www.w3.org/2000/svg" width="14" height="18" fill="none" viewBox="0 0 14 18">
  <path fill="#fff" d="M12.5.75a.917.917 0 01.91.81l.007.107v14.666a.916.916 0 01-1.827.108l-.007-.108V11.75h-.916a.917.917 0 01-.91-.81l-.007-.107v-5.5C9.75 3.307 11.125.75 12.5.75zM7 .75a.917.917 0 01.91.81l.007.107V6.25a3.669 3.669 0 01-2.75 3.551v6.532a.917.917 0 01-1.827.108l-.007-.108V9.801A3.669 3.669 0 01.588 6.44L.583 6.25V1.667a.917.917 0 011.827-.108l.007.108V6.25a1.833 1.833 0 00.916 1.588V1.667a.917.917 0 011.827-.108l.007.108v6.17a1.833 1.833 0 00.91-1.432l.006-.155V1.667A.917.917 0 017 .75z"/>
</svg>
