<svg xmlns="http://www.w3.org/2000/svg" width="22" height="22" fill="none" viewBox="0 0 22 22">
  <path fill="#fff" d="M19.493 14.629c-.365-4.045-2.382-6.073-2.382-6.073l-3.667-4.89H8.556l-3.667 4.89s-.867.875-1.569 2.612a3.045 3.045 0 00-2.098 2.888 3.038 3.038 0 00.984 2.233 3.02 3.02 0 00-.373 1.433c0 1.197.695 2.222 1.696 2.723C4.313 21.62 5.361 22 6.111 22h9.778c.843 0 2.061-.476 2.859-2.023a3.047 3.047 0 002.03-2.866 3.05 3.05 0 00-1.285-2.482zM11 3.667c.336 0 .647-.097.917-.255.27.158.58.255.916.255 1.013 0 2.445-1.433 2.445-2.445 0 0 0-1.222-1.222-1.222-.482 0-.611.611-1.223.611C12.223.611 12.223 0 11 0 9.778 0 9.778.611 9.167.611S8.427 0 7.944 0C6.722 0 6.722 1.222 6.722 1.222c0 1.012 1.433 2.445 2.445 2.445.335 0 .646-.097.916-.255.271.158.582.255.917.255z"/>
  <path fill="#fff" d="M14.667 3.667a.611.611 0 01-.611.61H7.944a.611.611 0 010-1.221h6.112a.611.611 0 01.61.61z"/>
  <path fill="#00AEEF" d="M14.606 14.998c0-2.736-5.244-2.558-5.244-4.208 0-.8.795-1.19 1.718-1.19 1.551 0 1.827.959 2.53.959.496 0 .736-.302.736-.64 0-.784-1.237-1.378-2.423-1.584v-.757c0-.473-.398-.856-.889-.856-.492 0-.89.383-.89.856v.784c-1.293.283-2.406 1.146-2.406 2.552 0 2.627 5.243 2.52 5.243 4.366 0 .64-.72 1.28-1.901 1.28-1.773 0-2.363-1.155-3.083-1.155-.35 0-.664.283-.664.711 0 .68 1.184 1.498 2.813 1.726l-.001.006v.854c0 .472.399.856.89.856s.889-.384.889-.856v-.854c0-.01-.005-.018-.005-.027 1.465-.263 2.687-1.181 2.687-2.823z"/>
</svg>
