<svg xmlns="http://www.w3.org/2000/svg" width="20" height="19" fill="none" viewBox="0 0 20 19">
  <path fill="#fff" d="M18.828 13.08H6.034l.642-1.309 10.674-.019c.36 0 .67-.258.735-.614l1.478-8.274a.746.746 0 00-.733-.879L5.252 1.94l-.116-.545a.763.763 0 00-.743-.602h-3.32a.758.758 0 100 1.517h2.705l.507 2.41 1.248 6.044-1.607 2.623a.751.751 0 00-.064.79.756.756 0 00.677.418h1.349a2.206 2.206 0 001.762 3.53 2.206 2.206 0 001.761-3.53h3.462a2.206 2.206 0 001.762 3.53 2.206 2.206 0 001.76-3.53h2.435a.76.76 0 00.759-.759.76.76 0 00-.761-.756zM5.568 3.436l12.37.04-1.211 6.785-9.718.017-1.441-6.842zM7.65 16.599a.68.68 0 01-.68-.679.68.68 0 01.68-.679.68.68 0 01.48 1.16.679.679 0 01-.48.198zm6.984 0a.68.68 0 01-.679-.679.68.68 0 01.68-.679.68.68 0 01.48 1.16.679.679 0 01-.48.198z"/>
</svg>
