<svg xmlns="http://www.w3.org/2000/svg" viewBox="0 0 361.46 321.98"><defs><style>.cls-1{fill:#e1a1b0;}.cls-2{fill:#fff;}.cls-3{fill:#f7cc1f;}</style></defs><g id="Layer_2" data-name="Layer 2"><g id="Layer_1-2" data-name="Layer 1"><path class="cls-1" d="M361.44,139.06a6.75,6.75,0,0,0-5.1-6.9,7.39,7.39,0,0,0-8.36,3,37,37,0,0,1-17.52,14c-17.87-48.08-67.4-84.08-146.86-84.08-31,0-57.47,5.5-79.27,15.07-16.39-7.91-43.27-16.28-72.24-6.36a1.38,1.38,0,0,0-.92,1.11c-.05.37-3,27.9,16.52,52.33a116,116,0,0,0-15.77,38.65l-18.37,4.68C3.8,173-2,182.53.64,191.66l13,44.8c4,13.6,13.06,18.9,33.64,18l3.49,0A131.31,131.31,0,0,0,72.42,277l5.8,37A8.21,8.21,0,0,0,86.68,322h25.85a8.21,8.21,0,0,0,8.47-7.93l1.48-9.43a191.28,191.28,0,0,0,128.26-2.18l1.82,11.61A8.21,8.21,0,0,0,261,322h25.85a8.22,8.22,0,0,0,8.47-7.93l6.82-43.57c22.35-21.3,35.81-48.71,35.81-78.63,0-1.84-.05-3.67-.12-5.49C356.3,173.69,360.62,152.06,361.44,139.06Z"/><path class="cls-2" d="M228.53,100.82l-.5-.25c-.9-.28-1.86-.57-2.83-.85l-.69-.2c-1-.27-1.91-.54-2.86-.79l-.16,0c-.92-.24-1.83-.46-2.74-.68l-.63-.15c-1-.22-1.91-.44-2.86-.64l-.19,0q-1.37-.29-2.73-.54l-.5-.09L209,96l-.12,0L206,95.59l-.29,0a152.38,152.38,0,0,0-25.85-1.34h0c-22.85.74-38.94,6.25-39.1,6.31l-.45.16-4.9-12.17.49-.17c1.87-.66,46.41-16,96.62-.08l.5.16Z"/><ellipse class="cls-2" cx="92.06" cy="155.06" rx="7.55" ry="7.06"/><circle class="cls-3" cx="157" cy="46.42" r="46.42"/><path class="cls-2" d="M179.07,38.16q-6.85-7.48-13.69-15c-.13-.15-.28-.3-.43-.45a1.33,1.33,0,0,0-.28-.1c-3.29-.15-6.59-.31-9.89-.45-.65,0-.92.26-.95.95L153,41.9a1.54,1.54,0,0,1-.74,0l-17.95-.82c-1,0-1.2.17-1.24,1.1-.14,3.1-.29,6.21-.43,9.32,0,.2-.08.41.05.6s.27.32.41.47q6.81,7.49,13.63,15a2.6,2.6,0,0,0,2,.91L160.6,69a3.2,3.2,0,0,0,.62,0,.79.79,0,0,0,.59-1.25,5.27,5.27,0,0,0-.49-.57q-6.18-6.8-12.38-13.58c-.22-.25-.42-.51-.63-.77.37,0,.74,0,1.11,0l13.43.61c.21,0,.56.23.63-.22l.36-7.19.39-7.74c.21.2.43.4.62.61l12.68,13.9c.3.34.61.65,1.12.45s.51-.6.53-1c.19-4.09.37-8.18.57-12.26A2.43,2.43,0,0,0,179.07,38.16Z"/></g></g></svg>