<svg xmlns="http://www.w3.org/2000/svg" viewBox="0 0 2771.84 795.3"><defs><style>.cls-1{fill:#ebf1f5;}.cls-2{fill:#353552;}.cls-3{fill:#f47d49;}.cls-4{fill:#ced8ee;}.cls-5{fill:#f7f8fa;}.cls-6{fill:#c2524d;}.cls-7{fill:#7a97cd;}.cls-8{fill:#f4ad7e;}.cls-9{fill:#2b488b;}.cls-10{fill:#dbe4f2;}.cls-11{fill:#293b64;}.cls-12{fill:#8ccecd;}.cls-13{fill:#6884c2;}.cls-14{fill:#eaeef1;}.cls-15{fill:#efd2c2;}</style></defs><g id="Layer_2" data-name="Layer 2"><g id="Layer_1-2" data-name="Layer 1"><path class="cls-1" d="M109.55,786.88c.21-2.76-.76-5.18-2-7.62C88.18,739.74,75.22,698,64.72,655.37,59.65,634.85,56.66,613.89,53.2,593c-6.57-39.58-6.48-79.38-5.19-119.13.64-19.65,3.52-39.39,7.05-59a544.07,544.07,0,0,1,18.3-73.15,476.86,476.86,0,0,1,73.26-139.51,313.79,313.79,0,0,1,32.94-37.21c28.91-27.75,61.26-50.88,98.06-67.18a400.06,400.06,0,0,1,96-28.36c32.65-5.51,65.41-6.75,98.18-5.22a498.22,498.22,0,0,1,61,6.86c22.88,3.92,45.46,8.87,67.87,14.7,20.57,5.36,40.47,12.75,60.49,19.82,23.86,8.41,45.61,21.66,69.82,29.16A159.23,159.23,0,0,0,774,142c35.33,1.05,69.17-6.51,102.46-17C917.59,112,957.8,96.34,998,80.59c22.24-8.71,44.92-16.3,67.34-24.55a1014.31,1014.31,0,0,1,117.19-34.88,714.85,714.85,0,0,1,72.11-13.39c21.34-2.79,42.72-4.5,64.15-6.28,19.31-1.6,38.5-1,57.74-1.45,17.25-.37,34.34,1.85,51.47,3.65,7.88.84,15.81,1.18,23.73,2q25.17,2.63,50.11,6.65c20.87,3.37,41.57,7.87,62.1,13.06A746.42,746.42,0,0,1,1666.65,60c29.17,12.08,57.52,26,86.24,39,36.28,16.5,73.26,31.35,112.32,40,20,4.43,40.3,7,60.74,9.13,29.27,3.06,58.49,1.31,87.71,1.37,12.09,0,24.37-1.35,36.51-3.11,8.14-1.19,16.47-1.33,24.68-2.48,14.38-2,28.88-3.12,43.21-5.66a165,165,0,0,1,19.72-1.88c10.27-.55,20.5-1.93,30.65-3,11.16-1.12,22.56-.17,33.53-3.19a9.32,9.32,0,0,1,3-.32c16.31,1,32.47-1.68,48.69-2.46,27.58-1.33,55.15-2.07,82.7-1.41,19.83.48,39.67,1.58,59.48,3.44,13.82,1.3,27.64,2.52,41.43,4.28a571.71,571.71,0,0,1,76.83,15.12,398.06,398.06,0,0,1,86.86,34.48,329.77,329.77,0,0,1,47.15,31.37c13.93,11,26.15,23.73,38,36.67,13,14.15,23.53,30.31,33.19,47,19.64,33.94,32.36,70.47,41.14,108.47a378.71,378.71,0,0,1,7.63,43.91c2.32,21.12,4,42.19,3.77,63.44-.17,16.92-2.13,33.65-3.72,50.46a486.62,486.62,0,0,1-14.11,77,590.31,590.31,0,0,1-28.73,84.75c-7.35,17.07-14.07,34.44-24.09,50.24-1.94,3.06-3.74,6.35-3.37,10.26l-81.61.16c-.16-7.4.32-14.86-2.45-22,.61-4.9,1.62-9.79,1.78-14.7.63-19.57,1.63-39.18-.05-58.71-1.19-13.83-2.58-27.77-10.1-40.12-2.09-3.44-2.74-7.47-3.16-11.39q-2.17-20.17-4-40.4c-1.89-21.13-4.54-42.12-10.85-62.47,4-5.54,2.51-11.83,2.43-17.92h0c3.56.47,6.22-1.1,9-3.21a132.57,132.57,0,0,0,20.87-19.85,52.22,52.22,0,0,0,10-17.09c5-14.84.16-28.18-7-40.83-5.87-10.4-13.86-19.37-21.09-28.86-10.7-14.06-23.34-23.21-41.49-23.34-3.36-5.62-1.87-12-2.82-18,2.87-.54,5.61-1.16,7.82-3.42,6.13-6.26,12.3-12.46,14.91-21.18.26-.16.73-.34.72-.48a7.19,7.19,0,0,0-.39-1.48l.12-4.1c.19-.21.58-.53.53-.63a9.46,9.46,0,0,0-.86-1.27c-3.73-12.45-13.37-17.81-25-20.8a15,15,0,0,0-12.58,0c-5.24,1.73-11.64.94-15,6.83-.25.16-.71.34-.7.47a7.65,7.65,0,0,0,.4,1.43c0,2,0,4.06-.08,6.09-.19.22-.58.56-.53.65a10.51,10.51,0,0,0,.94,1.28l1,1.87c-5.59,7.44-4.63,16.23-4.88,24.7-.15,5.14-1.39,10.76,4.88,14,1.83.93,1.42,3.59,1.31,5.54-.18,3.3-.61,6.58-.94,9.87-1.77.07-3.63-.17-4.91,1.49l-2.43.47c-1.38.09-2.7.3-3.58,1.53l-2.42.47c-1.37.09-2.7.29-3.58,1.53-13.9,6-22.31,16.28-26.29,31.13-1.93,7.19-3.51,14.69-6.86,21.52a3.21,3.21,0,0,0-1.06,1.55c-3.71,6.31-3.63,6.18-9,2.79-7.92-5-13.15-13.06-20.81-18.36-.14-4.26-.31-8.51-.43-12.77-.21-7.11-.2-7.18-6.91-7.32-4.26-.1-8.53,0-12.8.06-8.57-5.51-10.88-5.56-18-.36-3,.09-6,.26-9,.26q-74.4,0-148.8,0c-11.13,0-10.39-1.18-10.41,10q0,30,0,59.91,0,152.74-.11,305.5H2182.6l-.12-356.14c0-4,.07-8,0-12-.14-7.06-.18-7.23-7.09-7.24-36.26-.06-72.52.1-108.78-.17-5.23,0-6.8,2.15-7.81,6.5-1.72,7.39-2.23,15.06-5.19,22.16-3-.18-6-.37-9-.53-17.8-1-34.51-6.17-50.7-13.26-4-1.75-8.82-4.28-8.64-8.68.21-5.11,5.86-5.25,10-6.22,18.49-4.29,37.45-4.35,56.2-5.47,12.23-.74,24.45-1.78,36.7-2.4a12.42,12.42,0,0,0,7.35-2.83c8-6.65,15.15-14,18.63-24.14,6-17.6,6.82-35.59,3.31-53.73a104.31,104.31,0,0,0-5.4-19.07c-7.2-17.86-22-26.74-39.52-32-21.16-6.37-42.88-3.73-64.4-3.76-5.76,0-11.31,2-15,7.94a665.94,665.94,0,0,1-47.31,66.35c-7.92,9.79-15.58,20-25.55,27.83-2.81,2.21-6.22,7.17-10.13,4.43s-1.8-7.78-.44-11.9a268.24,268.24,0,0,1,23-50.68c5.66-9.77,11-19.73,16.1-29.8,2.31-4.56,1.24-6-3.73-6.39-7.42-.63-14.46,1.54-21.52,3.24-35,8.43-68.23,21.74-100.72,37.13-5,2.37-6.75,4.89-6.67,10.34.31,21.64,0,43.28.16,64.92.06,11-2,21.7-4,32.43a28.71,28.71,0,0,1-3.82,9.16c-2.89,5-5.46,5.2-8.84.61-1.16-1.59-2.62-3.5-2.65-5.28-.18-10.15-5.25-20.08-1.22-30.44.81-2.07.54-4.61.48-6.93-.27-12,1.69-23.71,3.67-35.46,1.39-8.24,2.32-16.56,3.66-26.32-6.86,3.9-12.89,5.35-18.5,8.43-19.28,10.6-34.36,26-49.2,41.71-5.89,6.21-11.07,13.35-11.69,22.56-11.25-2.33-22.43-5.26-33.78-6.87-19.55-2.76-39-1.44-58.42,2.38-29.3,5.76-53.42,18.73-69.25,45a100.75,100.75,0,0,0-13.93,38.1c-2.4,17.07-3.91,34.22-5,51.47-1.45,22.58-1.38,45.16-1.31,67.7.07,18.21-.31,36.49,1.46,54.75,1.84,18.94,2.55,37.88,6.94,56.6,5.48,23.33,19.41,40.7,36.86,55.42,10.22,8.62,23.09,13.28,36.26,16.68,4.35,1.13,9.33.59,13.06,3.89-3.65.09-7.3.25-11,.25q-83.7,0-167.42,0c-16.93,0-33.87-.16-50.8-.25,4.26-2.73,9.35-2.53,14-3.84,32.69-9.17,56.31-28.48,67.86-61,9.42-26.5,12.1-54,10.43-81.91-.4-6.75-.55-6.88-7.51-6.9-23.92-.06-47.85,0-71.77,0-1,0-2,.08-3,0-3.94-.31-5.24,1.66-5.11,5.36.16,4.65,0,9.3,0,13.95.07,15.5-1.91,30.6-7.41,45.25-4,10.74-12.15,17.2-24.2,18l-1.93-.71c-3.9-7.44-10.27-13.24-13.12-21.52-3.06-8.85-7.17-9.34-13.82-2.81l-3.46,3.4c-2-1.15-2-3.17-2.4-5.15-4.56-24.9-4.48-50.16-5.32-75.28q-1.12-33.8.82-67.72c1.31-23.15,1.25-46.31,9-68.55,3.94-.1,7.88-.29,11.82-.26,6,0,6,.11,11.58-5.4-1.41-.84-3.37.2-5-1.91,4.58-.34,7.09-4.53,11.49-4.85a15,15,0,0,0,2.73,1.21c12.81,2.8,19.87,10.5,23.65,23.3s6.44,25.5,5.51,38.78c-.34,4.94,1.4,6.16,6.12,6.33,24.62.83,49.23.69,73.85.66,7.33,0,7.4-.16,7.47-7.93a203.36,203.36,0,0,0-6.46-51c-6.7-27-20.94-49.1-44.21-64.66-11.85-7.94-25.46-11.54-39.44-14.64-25.55-5.67-50.72-4.35-75.89,1.21a92.63,92.63,0,0,0-43,21.8,122.79,122.79,0,0,1-6.64-18.78c-1.49-6-4.27-11.18-10-14.27-1-1.4-2.47-1.59-4-1.49l-6-.5-4-3.67c.09-1.3.17-2.6.26-3.91,1.09-.93,4.42,2.13,3.69-2.06.18-1.8-.21-3.34-1.9-4.31l.07-3.65-.1.1c5.18-3.41,6.49-9,8.22-14.41,3.12-1.29,4-4.39,5.1-7,4.25-9.66,3.15-12.15-3.66-20.25-5.93-7.06-14-9.18-21.91-12.22-12.9-5-22.86,1.85-27.88,9.88a112.48,112.48,0,0,0-10.46,21.92c-3.09,8.68-1.34,12.3,7.24,16.25,1.79.83,3.68,1.43,5.53,2.14,1.24,1.62,3,1.55,4.72,1.32l2.73.2c-.74,2.74-1.49,5.49-2.23,8.24a2.6,2.6,0,0,0-1.23,1.34c-2.93,2.08-1.93,6.27-4.57,8.51a3.67,3.67,0,0,0-3.36,1.47c-5.35.09-10,2.48-14.75,4.5a3.92,3.92,0,0,0-1.17,1.16c-3,3.81-4,8.24-4.06,13-.2,9.28-.51,18.55-.77,27.82l-1.29,2.19q0,6,.08,11.93c-2.18,10.17-3.42,11.4-12.24,12.18-3.34-2.06-6.73-4-10-6.19-5.53-3.66-10.51-7.38-10.35-15.34.08-3.68.22-8.8-5.19-10.37l-3-.32c.14-1.76,0-3.5-2.25-3.59a4.14,4.14,0,0,0-4.48,3.15c-1.19,6.92-1.91,14,2.62,20.08,5.29,7.08,10.53,14.28,16.58,20.68,4.91,5.18,9,11.64,16.32,14.07,2.63,6.17,5.9,11.85,11.89,15.43l-.3,2.08c-.24.15-.69.33-.68.47a7.57,7.57,0,0,0,.38,1.43c-.54,7.46-4,14.45-3.59,22.06-.26.16-.75.34-.74.47a7.84,7.84,0,0,0,.41,1.49l-.48,6.12c-.3.72-.6,1.45-.89,2.18.11,2.59.55,5.2-.47,7.72-.25.16-.73.34-.72.47a7.89,7.89,0,0,0,.39,1.48c.35,2.73.66,5.45-.31,8.13-.3.72-.6,1.45-.89,2.18.06,3.91.69,7.85-.47,11.72-.25.16-.73.33-.72.47a7.79,7.79,0,0,0,.39,1.47c.31,4.75.83,9.49-.33,14.2-2,3.13,0,3.77,2.54,4l.42.1,2,2.05c.58,2.24,1.59,4.46,1.66,6.71.47,14.9,2.63,29.62,4.2,44.4,1.5,14.08,3.28,28.11,6.17,42,2.12,10.21,5.51,20.17,6.24,30.66-1.89,2.82-4.82,1.71-7.3,1.72-21.29.09-42.59,0-63.89,0-5.65,0-11.31-.06-17,0-2.8,0-4.35-1.07-4.3-4,.05-2.66,0-5.32,0-8V541.54q0-60.87,0-121.74c0-8.11-.12-8.21-8.18-8.23-22.63-.05-45.25-.11-67.88,0-15.3.08-13.24-2-13.25,13.12q-.12,181.13-.11,362.24H988.75q0-33.47-.1-66.91c0-8.67-.08-8.67-8.67-8.77-2,0-4,0-6,0q-48,0-95.9,0c-7.12,0-7.26-.16-7.31-7-.11-12.32,0-24.63,0-37,0-10,.24-20-.08-30-.18-5.31,1.89-7.22,7-6.77,2.31.21,4.66,0,7,0,28.31,0,56.61,0,84.92,0,9,0,9.1-.19,9.13-8.82q.11-30,0-59.92c0-8.22-.11-8.32-8.06-8.35-17-.07-34,0-51,0q-21.48,0-43,0c-3.14,0-6,.1-5.95-4.46.12-19.64.09-39.28,0-58.92,0-3.53,1.6-4.71,4.87-4.54,2.32.12,4.66,0,7,0q48.95,0,97.9,0c8,0,8.12-.12,8.15-8.27q.08-28.47,0-56.93c0-8.61-.09-8.65-8.72-8.71q-31.45-.21-62.91-.34c.07-6.36-2-12.36-3.37-18.45a379.31,379.31,0,0,0-21.7-64.9,212.77,212.77,0,0,0-31.71-51.44c-4-4.77-9-5.75-14.23-3.15-5.55,2.79-7.89,7.86-6,14.07a64,64,0,0,0,4.49,11c14.14,27,31.62,52.06,46.68,78.54,6.36,11.2,14,21.79,17.83,34.3h-6c-4.38-7.41-8.52-15-13.2-22.21-11.51-17.78-23.39-35.25-37.21-51.47a376.86,376.86,0,0,0-30.45-31.43,177,177,0,0,0-29.34-22c-3.82-2.29-7.26-2.95-11.25-1.51-6,2.17-9.48,9.46-7.67,16.36,2.16,8.21,6.76,15,12.57,21.12,21.69,22.95,45.72,43.47,68,65.86a21.32,21.32,0,0,0,3,2.66c9.17,6.2,16.3,14.53,23.62,22.66-3.66.11-7.31.31-11,.32-26.29,0-52.59,0-78.88,0-8.19,0-8.29.1-8.32,8-.07,18.63,0,37.26,0,55.9l-.12,311.43-29.56.23c-.27-4.66-1.19-9.07-3.93-13-2.12-3.06-2.73-6.66-2.76-10.35.82-6.86,2.36-13.59,3.24-20.46,3.29-25.62,2.26-50.76-8.5-74.54-4.5-9.94-4.73-19.58-2.95-29.78a3.11,3.11,0,0,0,.92-1.68c-.58-30,2.75-59.89,2.52-89.88l1.29-2.34q.08-8.79.17-17.59l-1-1.88c-.36-3.31-.73-6.63-1.09-9.94l-1.2-2.13c-1.64-3.43-1.7-7.65-5.09-10.21,3.29-5.65,2.67-11.31-.17-16.85-3.41-6.67-7-13.23-12.21-18.77-8-8.47-12.53-18.24-10.56-30.24.2-.21.6-.53.55-.63a10.1,10.1,0,0,0-.88-1.32q-.44-6-.85-11.92c-.63-7,3.16-13.55,1.79-20.58.14-10.63-1.76-20.12-13.47-24.15-6.16-2.7-12.51-1.16-18.81-.89-5,.74-7.93-1.57-9.9-6.05-2.1-4.76-4.5-9.37-5-14.66l2.21-1.62c2.68-.37,5.92,1,7.63-2.39,5.31-6.26,6.08-13.79,6.08-21.55.11-2.24.46-4.56-1.86-6.07l-.06-.15c0-1.92,0-3.85,0-5.77l.16-.06,1.9-1.53,3.56-6.91a2.28,2.28,0,0,0,.37-1.59c1.23-8.52-3.2-14.59-8.72-20.2-2.12-2.43-4.34-2.15-6.63-.25-4.1.89-9.35.78-11.33,4.7-3.35,6.63-8.13,8.84-15.1,8.27-1.36-.12-2.91,1.12-4.27,1.93-10.17,6.08-13.55,17.21-19.48,26.43-.47.72-.12,2-.16,3a25.71,25.71,0,0,0,6.21,18.42c.55,2.23,1.17,4.45,1.63,6.7,1.31,6.27,5.41,12.28,10.41,13.63,8.16,2.2,9.16,6.88,9.09,13.43l-1.62,1.91-1.64,1.77c-2.87,1.43-5.7,2.94-8.61,4.29-6.13,2.84-11.09,6.58-12.33,13.88-.36,2.1-1.86,4-2.83,6-.84,2.69-1.69,5.38-2.53,8.07l-2.41-2.45a109,109,0,0,1,1.65-16.78c2.18-11.31,1.3-12.13-9.85-11.59-.66,0-1.33.05-2,.09q-34.73,2.36-69.45,4.68c-7.52.49-7.71.43-7.62,8,.32,25.56-1.55,51-2.54,76.54-1.08,27.81-1.89,55.63-3.32,83.44-1.39,27.16-1.49,54.38-2.21,81.57,0,1,.55,2.59-1.18,3.06-2.32-1.76-2.73-4.21-3.17-6.84-2.67-15.88-5.09-31.81-8.39-47.56-5.19-24.72-11.19-49.27-16.47-74-2-9.33-4.86-18.53-5.24-28.17a32.58,32.58,0,0,0,4-18.85,80.21,80.21,0,0,0-17.8-43.24c-3.39-7.43-4-15.56-5.87-23.38-.91-3.9-2.06-5.86-6.36-5a35.55,35.55,0,0,1-11.69.06c-2.36-7.32-8.94-12.67-14.86-12.09s-2.2,9.08-3.15,14l-14,.4c-.4-7.87,3.6-14.72,5.2-22.14,1-4.47.69-7.51-3.57-10.1s-7.93-6-11.9-9c-23.88-18-48.47-34.83-75.6-47.68-6.75-3.2-13.57-5.8-21.34-5.81,4.23,15.4,8.12,30.11,12.31,44.73,4.11,14.33,6.34,29,8.51,43.7.47,3.22-.57,6.2-3.44,7.62s-5.19-.95-6.59-3.13c-3.39-5.29-7.47-10-10.42-15.72a799.34,799.34,0,0,1-38.32-87.49c-1.75-4.69-4.38-7.15-8.66-8.61C240,282.6,218,277.47,195.16,279.86c-16.7,1.75-31.28,7.74-40,23.94a120.12,120.12,0,0,0-8.42,17.93c-5.38,15.71-9.56,31.7-5.09,48.54,3.39,12.79,8.89,23.47,23.27,27a280,280,0,0,1,29.56,8.6c10.87,3.94,22.69,5.06,32.84,11.07-2.1,1.47-5.12-.46-6.89,1.63,2.5,6.27,4.82,12.36,5.13,19-7,0-13.94-.11-20.91,0-15.75.31-30.92-2.26-45.24-9.05a4.83,4.83,0,0,0-3.47-.51c-1.33.86-1,1.86-.81,2.81,5.42,28.46,13.87,55.49,31.39,79.42,12.79,17.47,30.33,21,49.67,20.81,4.74,0,9.72-1.6,14.65-2.1,1.26,3.4,2.78,6.74,2.7,10.48-5.65,2.81-11.28,5.64-16.95,8.4a26,26,0,0,0-8.81,6.36c-4.72,5.56-5.11,10.3.43,14.59,11.07,8.56,23.25,15.14,37.55,16.66,6.11,17,10.2,34.48,14.89,51.84,3.23,11.94,6.32,23.92,9.47,35.88-4.27.24-7.55-2.32-11.05-4.08a227.71,227.71,0,0,0-53.22-18.61c-6.16-1.37-11.64,1.41-14.5,7.27-2.39,4.91-.46,10,5.19,14.15a48.86,48.86,0,0,0,10.41,5.63c23.26,9.57,47.25,17.11,70.82,25.81C299,705,300,706.76,299.59,709c-2.67,3.48-5.78,1.86-9,1-32.77-9-66-14.12-100.13-12.76A57.76,57.76,0,0,0,176.7,699c-11.9,3.39-14.79,12.29-6.78,21.61,4.65,5.42,11,7.47,17.58,8.48a534.1,534.1,0,0,0,68.12,6.13,49.1,49.1,0,0,1,7,.25c15,2.56,30.32,2.2,45.44,3.69,4.59,14.73,9.26,29.44,11.86,44.69-.16,1-.33,2-.5,3-3.31.13-6.61.37-9.92.37q-95,0-190,0C116.16,787.22,112.86,787,109.55,786.88Zm2068.24-467c-5.15.85-9.67-3.22-15.29-2.2-.19,10.71,7,16.24,14,21.88.2.89.65,1.45,1.67,1.25l1.85.91c9.21,9.79,20.93,13.31,33.95,13.67a16.29,16.29,0,0,0,7.65-1.86c1.73-.84,2.76-2.62,1.3-3.92a90.6,90.6,0,0,0-11.78-9.06c-2.66-1.68-5.66.21-8.54.59-6.1.79-12.52,2.29-18.27-1.71l-2.31-7.48-1.06-2.26q-.37-4.07-.76-8.13A2.66,2.66,0,0,0,2177.79,319.86ZM1041.09,341.1c-6.11.57-12.32,2.16-18-1.64-2-3.41-4.6-6.69-4.21-10.89.5-5.36-2-8.05-7-8.9-3.47-.6-6.5-3.06-11.32-2.19,1.75,10.87,7.64,18.53,16.92,24,15.88,13.84,31.34,17.31,45.32,9.64-6-4.19-9.64-11.08-17.82-11.43C1043.49,339.64,1042.08,339.79,1041.09,341.1Zm645.43-15.43c-1.64.18-3.74-.2-4.83.67-2.33,1.88-1.27,4.91-1.45,7.5-.32,4.35,1.93,5.82,6,5.77,12.91-.17,23.28-4.74,29.48-16.63,6.68-12.81,6-26.21,2.92-39.76a11.68,11.68,0,0,0-4-6.74,24.21,24.21,0,0,1-2.66,3.74c-6.62,6-9.09,12.53-3.55,20.64a12.92,12.92,0,0,1,1.52,4.71c2.16,10.9-2.06,17.11-13.56,20.1ZM1388,238c-1-4.22-4.37-6.6-7.35-8.94-18-14.1-38.56-23.53-60-30.79-23.28-7.89-47.77-10.38-72.15-12.34-21.24-1.71-42.45,1.13-63.67,2a12.29,12.29,0,0,0-3.86.87c-4.8,1.88-8.74.7-13-2.15-18.62-12.38-39.58-18.52-61.58-20.56-15.61-1.45-31,1.54-46.09,5.71-17.44,4.85-33.3,13.24-48.59,22.74-2.55,1.58-4.8,3.51-8.1,3.31-5.67-.36-11.19,1.27-16.74,1.7-18.42,1.42-33.49,9.92-47.47,20.95-4.57,3.61-8.29,8.16-9.59,14,2.37,1.63,4.41,1.25,6.37,1.29,45.2,1.08,90.38-.34,135.63,1.56,69.43,2.91,139-1.37,208.53,2.16,32.88,1.67,65.92.32,98.88.24C1382.09,239.67,1385.24,240.67,1388,238ZM415.74,207.76c21.81,1.37,49-.2,76.27,1.47,35.15,2.15,70.53.54,105.81.49,2.19,0,5.06,1,6.25-1.64,1.08-2.34-.72-4.52-2.12-6.25-4.85-6-10.87-10.64-16.93-15.32-16.74-12.9-34.73-22.95-55.77-27.15-8.78-1.76-17.74-2.32-26.39-4-18.42-3.58-36.25.24-54.25,1.94-4.81.46-8.83-.32-11.9-3.41-4.08-4.11-9-6.76-13.83-9.63-21.46-12.72-43.89-13.8-66.72-4.65-12.68,5.08-24.44,12-33.84,22.27a18,18,0,0,1-15.2,6,36.22,36.22,0,0,0-10.79,1.27c-16.28,3.94-27.27,14.3-35.69,28.06-1.31,2.15-4.15,4-2.22,7,1.51,2.37,4.21,1.62,6.42,1.55,35.56-1.22,71.05,1.82,106.58,2C384.4,207.83,397.38,207.76,415.74,207.76ZM1648.12,144a17.38,17.38,0,0,0-6.71-7.66c-5.76-3.89-11.32-8.14-17.37-11.51a151.53,151.53,0,0,0-66.31-18.9c-15.48-.83-31,0-46.46,0-2.66,0-5.64-.62-7.92.33-5.79,2.43-9.86-.09-14.67-2.9-19.5-11.36-40.12-16.46-63-11.79-15,3.07-28.18,9.46-41.08,17.1-3.61,2.13-6.65,5.89-11.51,5.22-6.12-.85-11.92,1.19-17.66,2.39-14.22,3-24.08,12.22-33.58,25.17,15.15,1,28.4,1.64,41.41,2,65.12,2,130.31-1.52,195.47,2.15,26.54,1.49,53.24.28,79.87.19C1641.51,145.77,1644.61,146.72,1648.12,144Zm719.75,143.7v0c15,0,29.92,0,44.88,0,1.6,0,3.56.23,4.2-1.78.58-1.84-.77-3.24-2.08-4.12-6.61-4.41-12.84-9.42-20.19-12.67-25.88-11.42-52.84-13.89-80.6-9.69a13.34,13.34,0,0,1-9.42-1.89c-22.7-13.53-46-13.81-69-1.31-9.19,5-18.36,8.47-28.7,9.86-8.12,1.09-14.59,6-20.09,12-1.36,1.5-2.88,3.1-2.16,5.24,1,2.88,3.67,2.25,5.93,2.38.33,0,.66,0,1,0,47.79.79,95.61-1.73,143.38,1.88C2345.87,288.38,2356.9,287.68,2367.87,287.68ZM537.81,300.88c0-4.39-3.39-6.4-5.6-9.17-3.86-4.84-7.76-7.11-14.54-4.7-6.19,2.19-13.18.66-19.82.54-3.47-.06-5.23-2.13-6.92-4.85-4.95-8-4.59-16.5-2.46-25,.94-3.74.59-5.68-3.43-6.37-2.27-.38-4.43-1.38-6.7-1.69-2.68-.36-4.25,1-4.91,3.77a37.26,37.26,0,0,0,15.75,40.12C504.09,303.08,520.4,305.07,537.81,300.88Zm1031.8-49.24c3,1,6.27-1.09,9.54-2.48s4.19-3.81.92-6.71c-4.68-4.14-9.39-8.34-11.63-14.45a2.4,2.4,0,0,0-3-1.79c-4.71,1-10.88-.18-13.58,4.1-2.12,3.35,1.46,7.56,3.41,11.12,1,1.74,2.56,3.27,3.14,4.89C1560.32,251.59,1564.39,251.63,1569.61,251.64Zm-328.7-133.92c8.69.37,20.64-12.57,19.54-19.79a2,2,0,0,0-.24-.92c-2.93-3.91-7.53-3.65-11.63-4.66-3.41-.85-4.71,1.1-5.7,3.91-1.6,4.51-4.94,7.77-8.4,10.89-5.48,4.93-5,7.52,1.81,9.67A31.84,31.84,0,0,0,1240.91,117.72Zm107.21,210c8.71,0,16.63-8.13,16.56-16a4.34,4.34,0,0,0-1.51-3.49,9.08,9.08,0,0,0-14,2.35,32.25,32.25,0,0,1-7.15,8.13c-1.48,1.27-3.55,2.17-2.94,4.63s2.52,3.78,5,4.08C1345.74,327.69,1347.4,327.71,1348.12,327.76Z"/><path class="cls-2" d="M1408,787c16.93.09,33.87.24,50.8.25q83.72,0,167.42,0c3.65,0,7.3-.16,11-.25,9.47.11,18.94.28,28.41.29,2.5,0,5.3.82,7.29-1.66,3,1.76,6.34,1.61,9.67,1.6q18.89-.08,37.79-.1l33.89.09,34.16-.08H1831c-2.51-4.42-7.12-3-8.89-6.26.56-1.78,1.11-3.56,1.67-5.34,5.55-.83,10.37-4.32,16.12-4.42l3.56,2.66,1.42,1.13c6.06,8.71,16.25,11.22,25.05,11.9,19.5,1.52,39.22.27,58.85.15h51.13q34.39.92,68.79,0h49.77q42.07.88,84.16,0h59.09c3.64.12,7.29.35,10.93.36q92.12,0,184.23,0c3.64,0,7.29-.23,10.93-.35l40.22.19,52.41-.13,23.33.07h52.45l81.61-.16,25,.33a49.58,49.58,0,0,1,6,.25c2.43.34,3.16,2.25,3,4.39a3.17,3.17,0,0,1-3.15,3.21c-3.33.16-6.66.2-10,.2H14.55c-3.33,0-6.66,0-10-.06A4.24,4.24,0,0,1,0,791c-.22-3.16,2.08-3.74,4.64-3.74l8,0,96.91-.35c3.31.12,6.61.34,9.92.34q95,0,190,0c3.31,0,6.61-.24,9.92-.37l.94.27,1-.17a138.85,138.85,0,0,0,21.87,0,58.38,58.38,0,0,0,14,0c1.32.1,2.65.27,4,.27l252.18-.06h45.85l49.24-.3,44.7.3,29.57-.23c3.31.12,6.63.35,9.94.36q93.1,0,186.22,0c3.31,0,6.62-.23,9.93-.35h42.39l175.4.09,24-.08,119.33,0C1369.28,787.6,1388.65,787.47,1408,787Z"/><path class="cls-3" d="M1928.75,786.93c-19.63.12-39.35,1.37-58.85-.15-8.8-.68-19-3.19-25.06-11.9a4.34,4.34,0,0,0-.52-1.49l.16-138.07c4.71-5.52,11.49-3.88,17.48-5,6.48,1.25,6.84-4.34,8.94-8,4.46-5,8.66-10.15,7.11-17.6,1.53-3.63,3.15-7.23,4.59-10.9,3.38-8.59,2.78-9.3-6.13-10.3-10.72-1.21-21.54-1.59-32.09-4.08l-.09-6.06c.13-3.65.37-7.29.37-10.94q0-69.31,0-138.63c0-2.65.07-5.31,0-8,0-2.87,1.28-4.29,4.17-4.24,1.33,0,2.66,0,4,0q54.38,0,108.75,0c7.38,0,7.43.11,9,7.19,2,9.06,3.88,18.13,5.82,27.19q9.13,42.74,18.29,85.46a23.67,23.67,0,0,0,.24,4c5.06,22.62,9.53,45.31,11.83,68.44,1.5,15.08,4.19,30,6.4,45.42,3.19-2.31,2.65-5.17,3-7.71,5.27-34.35,9.39-68.87,17.36-102.78,1.94-8.31,4.66-16.61,4.59-25.34,6.22-24.22,11.23-48.69,15.43-73.34,3-7.1,3.46-14.77,5.18-22.16,1-4.35,2.58-6.54,7.81-6.5,36.26.27,72.52.11,108.78.17,6.91,0,7,.18,7.09,7.24.09,4,0,8,0,12l.12,356.14q-42.09.93-84.16,0c.49-5.26,1.37-10.52,1.41-15.78.19-26.25,1.19-52.48,1.75-78.71.73-34.21,2.31-68.41,2.34-102.63,0-1.66.41-3.31.36-5-.63-24.1,2.57-48.14,1.3-74.3-1.63,6.67-2.94,11.38-3.93,16.17q-19.62,95.49-39.15,191c-4.71,23-9.24,46.13-13.85,69.19q-34.39.92-68.79,0-15.87-77.17-31.73-154.35c-3.65-17.75-6.64-35.65-11.43-53.16-3.24-23.22-9-45.92-14.34-68.71,1,22.94-.7,45.88,2.06,68.66-.15,21.83.39,43.63,1.31,65.46,1.14,26.78.72,53.62,2.11,80.43C1928.92,745.78,1928.51,766.37,1928.75,786.93Z"/><path class="cls-3" d="M343.17,786.94a138.85,138.85,0,0,1-21.87,0,3.35,3.35,0,0,0-1.4-3.07c-2.6-15.25-7.27-30-11.86-44.69-2.23-10.22-4.31-20.49-8.45-30.18.45-2.24-.57-4-1.86-5.68-.76-10.51-4.61-20.24-7.65-30.17-3.15-12-6.24-23.94-9.47-35.88-4.69-17.36-8.78-34.89-14.89-51.84-2.67-15.71-7.36-30.88-12.22-46,.08-3.74-1.44-7.08-2.7-10.48-4.18-15.6-8.3-31.22-12.55-46.81-4.06-14.91-7.23-30.09-12.73-44.6-.31-6.65-2.63-12.74-5.13-19,1.77-2.09,4.79-.16,6.89-1.63,10.26-.57,20.53-1,30.77-1.75q22.82-1.62,45.59-3.58c4.82-.41,7.12.95,7.83,6.27,1.49,11.14,3.8,22.17,5.86,33.23q6.36,34.17,12.82,68.33c.81,5.4.59,11,3.18,16.08,2.37,21.52,7,42.65,11.2,63.86Q350.26,633.67,356,668c1.1-7.45,1-14.73,1.13-22s1-14.61.67-21.86c-.47-9,2.55-17.8.82-26.77.83-6.55,1.89-13.08,2.42-19.65,1.69-20.8,3-41.63,4.78-62.43,2.49-30,5.45-60,7.75-90,1.46-19.11,1.31-19.22,20.21-19.76,7.21-.21,14.53.26,21.58-2l14-.4c5.91-1.54,12.15.07,18-1.93a35.55,35.55,0,0,0,11.69-.06c4.3-.86,5.45,1.1,6.36,5,1.83,7.82,2.48,16,5.87,23.38-.47,4.72,1.34,9.07,2.4,13.5,3.87,16.18,6.18,32.73,11.41,48.59.38,9.64,3.24,18.84,5.24,28.17,5.28,24.71,11.28,49.26,16.47,74,3.3,15.75,5.72,31.68,8.39,47.56.44,2.63.85,5.08,3.17,6.84,1.73-.47,1.15-2,1.18-3.06.72-27.19.82-54.41,2.21-81.57,1.43-27.81,2.24-55.63,3.32-83.44,1-25.51,2.86-51,2.54-76.54-.09-7.58.1-7.52,7.62-8q34.72-2.26,69.45-4.68c.66,0,1.33-.05,2-.09,11.15-.54,12,.28,9.85,11.59a109,109,0,0,0-1.65,16.78c-2.84,3.94-1.54,8.49-1.84,12.8-3.65,6.39-1.59,13.61-2.72,20.4-1.82,11-4.35,22.07-2.87,33.39-3.53,4.74-2.16,10.51-3.33,15.74-5.3,3.73-11.13,7-12.41,15.21,5.76-1.28,8.75.47,7.64,6.64a17.87,17.87,0,0,0,.62,8.75c-3,24.65-6,49.31-9.12,73.94Q583,668.17,575,730.28c-1.43,11.17-2.72,22.36-4.14,33.54-.59,4.55-1.89,7.38-7.87,7.61-16.56.64-33.08,2.42-49.63,3.63-11.26.82-22.54,1.39-33.8,2.15-3.91.27-5.92-.94-6.65-5.26-1.81-10.78-4.19-21.46-6.39-32.18-10.13-49.38-20.87-98.65-29.58-148.31-2.24-12.76-4.37-25.54-6.55-38.31-2.07,14.31-1.69,28.61-2.38,42.84-1.24,25.84-2.89,51.66-4.08,77.49-1.36,29.83-3.41,59.61-4.82,89.43-.17,3.66.18,7.36-.23,11-.77,6.85-2,8-8.63,8.43-17.57,1.07-35.15,2-52.73,3C352.68,785.58,347.6,783.53,343.17,786.94Z"/><path class="cls-3" d="M988.75,786.94c-3.31.12-6.62.34-9.93.35q-93.12,0-186.22,0c-3.31,0-6.63-.24-9.94-.36l.12-311.43c0-18.64,0-37.27,0-55.9,0-7.93.13-8,8.32-8,26.29-.05,52.59,0,78.88,0,3.66,0,7.31-.21,11-.32h36q31.46.16,62.91.34c8.63.06,8.7.1,8.72,8.71q.08,28.47,0,56.93c0,8.15-.12,8.26-8.15,8.27q-48.94.07-97.9,0c-2.33,0-4.67.12-7,0-3.27-.17-4.89,1-4.87,4.54.08,19.64.11,39.28,0,58.92,0,4.56,2.81,4.47,5.95,4.46q21.48,0,43,0c17,0,34,0,51,0,7.95,0,8,.13,8.06,8.35q.09,30,0,59.92c0,8.63-.17,8.8-9.13,8.82-28.31.07-56.61,0-84.92,0-2.33,0-4.68.18-7,0-5.06-.45-7.13,1.46-7,6.77.32,10,.08,20,.08,30,0,12.32-.07,24.63,0,37,.05,6.86.19,7,7.31,7q47.94.09,95.9,0c2,0,4,0,6,0,8.59.1,8.65.1,8.67,8.77Q988.76,753.48,988.75,786.94Z"/><path class="cls-3" d="M2447.78,786.94c-3.64.12-7.29.34-10.93.35q-92.11,0-184.23,0c-3.64,0-7.29-.24-10.93-.36q.06-152.76.11-305.5,0-30,0-59.91c0-11.14-.72-9.95,10.41-10q74.4,0,148.8,0c3,0,6-.17,9-.26,1.11,5.62,5.37,6.49,9.81,5.66,3.16-.6,5.91-2.82,8.18-5.3,4.27,0,8.54-.16,12.8-.06,6.71.14,6.7.21,6.91,7.32.12,4.26.29,8.51.43,12.76a319,319,0,0,0-.06,36.06c-.14,4.64-.31,9.29-.42,13.94-.05,2.38-1.12,3.73-3.57,3.77s-4.66.06-7,.06q-48.91,0-97.83,0c-8.76,0-8.83.09-8.86,8.55-.06,15.3-.12,30.61,0,45.91s-2.13,13.37,13,13.42q43.92.15,87.84,0c4.62,0,7.31.55,7.23,6.34-.31,21.29-.28,42.58,0,63.87.06,5.49-2.24,6.8-7.11,6.65-7.65-.23-15.3-.05-23-.05q-33.95,0-67.88,0c-10,0-10,.08-10.07,9.64,0,7.31,0,14.63,0,22,0,14-.06,27.94,0,41.91,0,7.42.16,7.42,7.84,7.57,2,0,4,0,6,0q47.41,0,94.83,0c8.53,0,8.59.09,8.61,8.81Q2447.79,753.5,2447.78,786.94Z"/><path class="cls-4" d="M1994.71,531.42q-9.15-42.72-18.29-85.46c-1.94-9.06-3.83-18.13-5.82-27.19-1.55-7.08-1.6-7.18-9-7.19q-54.37-.06-108.75,0c-1.33,0-2.66.06-4,0-2.89,0-4.21,1.37-4.17,4.24,0,2.66,0,5.32,0,8q0,69.32,0,138.63c0,3.65-.24,7.29-.37,10.94-17.06-5.18-33.56-11.27-44.54-26.64-1.08-1.51-2.93-1.19-4.55-1.27-.36-4.28-.83-8.55-1-12.84-.93-17.8-2.27-35.53-5.86-53-5.1-24.85-17-45.64-36.67-61.83-8.27-6.78-17.89-11.14-27.3-15.91.62-9.21,5.8-16.35,11.69-22.56,14.84-15.67,29.92-31.11,49.2-41.71,5.61-3.08,11.64-4.53,18.5-8.43-1.34,9.76-2.27,18.08-3.66,26.32-2,11.75-3.94,23.48-3.67,35.46.06,2.32.33,4.86-.48,6.93-4,10.36,1,20.29,1.22,30.44,0,1.78,1.49,3.69,2.65,5.28,3.38,4.59,6,4.43,8.84-.61a28.71,28.71,0,0,0,3.82-9.16c2-10.73,4.07-21.42,4-32.43-.11-21.64.15-43.28-.16-64.92-.08-5.45,1.65-8,6.67-10.34,32.49-15.39,65.7-28.7,100.72-37.13,7.06-1.7,14.1-3.87,21.52-3.24,5,.42,6,1.83,3.73,6.39-5.11,10.07-10.44,20-16.1,29.8a268.24,268.24,0,0,0-23,50.68c-1.36,4.12-3.45,9.16.44,11.9s7.32-2.22,10.13-4.43c10-7.85,17.63-18,25.55-27.83a665.94,665.94,0,0,0,47.31-66.35c3.69-5.92,9.24-7.95,15-7.94,21.52,0,43.24-2.61,64.4,3.76,17.56,5.28,32.32,14.16,39.52,32a104.31,104.31,0,0,1,5.4,19.07c3.51,18.14,2.73,36.13-3.31,53.73-3.48,10.13-10.66,17.49-18.63,24.14a12.42,12.42,0,0,1-7.35,2.83c-12.25.62-24.47,1.66-36.7,2.4-18.75,1.12-37.71,1.18-56.2,5.47-4.18,1-9.83,1.11-10,6.22-.18,4.4,4.65,6.93,8.64,8.68,16.19,7.09,32.9,12.28,50.7,13.26,3,.16,6,.35,9,.53-4.19,24.65-9.2,49.12-15.42,73.34-3,0-4.74,2-6.68,3.79C2021.18,526.94,2008.63,531,1994.71,531.42Z"/><path class="cls-3" d="M1724.32,401.84c9.41,4.77,19,9.13,27.3,15.91,19.72,16.19,31.57,37,36.67,61.83,3.59,17.51,4.93,35.24,5.86,53,.22,4.29.69,8.56,1,12.84-1,23.93-.41,47.87-.29,71.8a20.8,20.8,0,0,1-14.35,1.93c-4.13-.88-8.11-2.49-12.16-3.78,0-2.31-1.32-3.37-3.32-4.25-3.57-1.58-7-3.45-10.5-5.2,7.83-8.75,11.33-18,2.93-28.37-1.78-2.2-1-4.24.25-6.38,1.71-2.82,3.44-5.66,4.87-8.63,3.6-7.48,3.16-14.46-2.05-21.35-15.52-20.53-32.48-26.63-55.31-17.57a4.46,4.46,0,0,1-1,.17c-.62-5.92-1.31-11.83-1.83-17.76a88.31,88.31,0,0,0-4.11-21.44c-3.15-9-9.18-15-18.81-17.46-23.22-6-39.34,4.48-42.88,28.18a377.86,377.86,0,0,0-3.78,52.48c-.2,22.93.21,45.87-.13,68.8-.28,18.6.9,37.12,2.1,55.64a112.37,112.37,0,0,0,3.8,22.5c3.11,11.31,10.55,17.93,21.92,20.67,6,1.45,11.84,1.08,17.76,0-1,3.42-2.1,6.82-2.95,10.27-1.48,6-5,11.43-4.69,17.87-1.22,4.46-3,8.86-3.53,13.4-1.18,10.07-3.78,20.64,5.73,28.64-2,2.48-4.79,1.66-7.29,1.66-9.47,0-18.94-.18-28.41-.29-3.73-3.3-8.71-2.76-13.06-3.89-13.17-3.4-26-8.06-36.26-16.68-17.45-14.72-31.38-32.09-36.86-55.42-4.39-18.72-5.1-37.66-6.94-56.6-1.77-18.26-1.39-36.54-1.46-54.75-.07-22.54-.14-45.12,1.31-67.7,1.11-17.25,2.62-34.4,5-51.47a100.75,100.75,0,0,1,13.93-38.1c15.83-26.28,40-39.25,69.25-45,19.45-3.82,38.87-5.14,58.42-2.38C1701.89,396.58,1713.07,399.51,1724.32,401.84Z"/><path class="cls-3" d="M1206.54,787l-175.4-.09q0-181.12.11-362.24c0-15.16-2-13,13.25-13.12,22.63-.12,45.25-.06,67.88,0,8.06,0,8.17.12,8.18,8.23q.06,60.87,0,121.74V699.21c0,2.66.08,5.32,0,8,0,3,1.5,4.07,4.3,4,5.66,0,11.32,0,17,0,21.3,0,42.6,0,63.89,0,2.48,0,5.41,1.1,7.3-1.72,2.56,1.64,2.47,4.63,3,7,3.17,14.94,6,30,8.91,44.95-.87,1.41-1.77,2.8-2.62,4.22-3.8,6.35-5.25,14.57-14,17C1207.39,782.87,1207.11,785.5,1206.54,787Z"/><path class="cls-4" d="M330.15,519.39q-6.42-34.17-12.82-68.33C315.27,440,313,429,311.47,417.83c-.71-5.32-3-6.68-7.83-6.27q-22.78,1.94-45.59,3.58c-10.24.73-20.51,1.18-30.77,1.75-10.15-6-22-7.13-32.84-11.07a280,280,0,0,0-29.56-8.6c-14.38-3.48-19.88-14.16-23.27-27-4.47-16.84-.29-32.83,5.09-48.54a120.12,120.12,0,0,1,8.42-17.93c8.76-16.2,23.34-22.19,40-23.94,22.86-2.39,44.84,2.74,66.36,10.08,4.28,1.46,6.91,3.92,8.66,8.61A799.34,799.34,0,0,0,308.5,386c2.95,5.69,7,10.43,10.42,15.72,1.4,2.18,3.61,4.61,6.59,3.13s3.91-4.4,3.44-7.62c-2.17-14.69-4.4-29.37-8.51-43.7-4.19-14.62-8.08-29.33-12.31-44.73,7.77,0,14.59,2.61,21.34,5.81,27.13,12.85,51.72,29.71,75.6,47.68,4,3,7.68,6.4,11.9,9s4.53,5.63,3.57,10.1c-1.6,7.42-5.6,14.27-5.2,22.14-7,2.22-14.37,1.75-21.58,2-18.9.54-18.75.65-20.21,19.76-2.3,30-5.26,60-7.75,90-1.74,20.8-3.09,41.63-4.78,62.43-.53,6.57-1.59,13.1-2.42,19.65a31,31,0,0,1-14.07,2c-4.2-21.21-8.83-42.34-11.2-63.86,5.26-.45,10.65,1,15.79-1,4.06-1.57,4.72-3.58,1.57-6.51A32.11,32.11,0,0,0,330.15,519.39Z"/><path class="cls-3" d="M1408,787c-19.37.5-38.74.63-58.11-.06-2.27-1.66-5-1.39-7.59-1.93-32.57-6.75-58.72-23-74-53.21-11.39-22.52-14-47.33-14.94-72.24,3.13.14,5.5,2,8,3.48,6.83,4,13.6,8.09,20.58,11.8q26.22,13.91,52.62,27.47c5.21,2.7,9.66,7.1,16,7.43,3,4.45,8.08,5.47,12.48,7.58,3.57,1.71,7.36,3,10.19,6,2.63,2.73,5.75,5.74,9.35,3,3.89-3-1.48-5.57-1.63-8.57l.19,0-.28-.44-.05-.09a2.07,2.07,0,0,0,.5-1.24c12.05-.8,20.16-7.26,24.2-18,5.5-14.65,7.48-29.75,7.41-45.25,0-4.65.13-9.3,0-13.95-.13-3.7,1.17-5.67,5.11-5.36,1,.08,2,0,3,0,23.92,0,47.85,0,71.77,0,7,0,7.11.15,7.51,6.9,1.67,28-1,55.41-10.43,81.91-11.55,32.49-35.17,51.8-67.86,61C1417.37,784.44,1412.28,784.24,1408,787Z"/><path class="cls-5" d="M1388,238c-2.79,2.68-5.94,1.68-8.76,1.69-33,.08-66,1.43-98.88-.24-69.53-3.53-139.1.75-208.53-2.16-45.25-1.9-90.43-.48-135.63-1.56-2,0-4,.34-6.37-1.29,1.3-5.83,5-10.38,9.59-14,14-11,29-19.53,47.47-20.95,5.55-.43,11.07-2.06,16.74-1.7,3.3.2,5.55-1.73,8.1-3.31,15.29-9.5,31.15-17.89,48.59-22.74,15.05-4.17,30.48-7.16,46.09-5.71,22,2,43,8.18,61.58,20.56,4.28,2.85,8.22,4,13,2.15a12.29,12.29,0,0,1,3.86-.87c21.22-.82,42.43-3.66,63.67-2,24.38,2,48.87,4.45,72.15,12.34,21.4,7.26,42,16.69,60,30.79C1383.66,231.39,1387,233.77,1388,238Z"/><path class="cls-6" d="M2587.39,537.31c6.31,20.35,9,41.34,10.85,62.47q1.8,20.21,4,40.4c.42,3.92,1.07,8,3.16,11.39,7.52,12.35,8.91,26.29,10.1,40.12,1.68,19.53.68,39.14.05,58.71-.16,4.91-1.17,9.8-1.78,14.7-5.73,1.7-11.18,5.3-17.55,2.58-3.36-2.38-3.31-6.35-4.27-9.71-6.74-23.6-13.12-47.3-20-70.86-3.34-11.54-6.15-23.31-11.66-34.27.29,4.51-1.79,8.54-1.89,12.84-.63,26.61-4.61,52.81-10.42,78.71-2,8.93-2.78,18.38-8,26.41-6.54,0-13.12.37-19.39-2.1-4.38-30-5.41-60.4-8.33-90.59-2-20.7-2.89-41.52-4.88-62.23-2.56-26.64-4.07-53.34-5.15-80.08,3.86.92,7.75,1.77,11.58,2.78C2538.49,545.13,2563,545,2587.39,537.31Z"/><path class="cls-7" d="M2587.39,537.31c-24.39,7.73-48.9,7.82-73.54,1.27-3.83-1-7.72-1.86-11.58-2.78-5.06-5-6.15-11.4-6.14-18.16,0-11.42,0-22.85,0-34.09-2.85-.62-3.82,1-5.14,1.86-9.39,6-16.46,5.92-25.57-.26-6.92-4.69-11.75-11.44-17.36-17.43a319,319,0,0,1,.06-36.06C2455.79,437,2461,445,2468.94,450c5.33,3.39,5.25,3.52,9-2.79.73-.26,1.26-.65,1.06-1.55,3.35-6.83,4.93-14.33,6.86-21.52,4-14.85,12.39-25.08,26.29-31.13a3.5,3.5,0,0,0,3.58-1.53l2.41-.47a3.51,3.51,0,0,0,3.59-1.53l2.43-.46,5.13-.42c2.36,6.62,8.85,6.07,13.38,5.78,6.4-.41,14.38.15,17.52-8.21,18.15.13,30.79,9.28,41.49,23.34,7.23,9.49,15.22,18.46,21.09,28.86,7.15,12.65,12,26,7,40.83a52.22,52.22,0,0,1-10,17.09,132.57,132.57,0,0,1-20.87,19.85c-2.78,2.11-5.44,3.68-9,3.21-.78-7.28-7.58-7.06-12.1-9.69,1.25-.24,3.21-.64,2.85-1.9-1.48-5.16,1.51-8.57,4.08-12.26,2-2.9,3.86-5.92,5.77-8.88,13-14.8,12.82-22.89-.12-32.47-1.4-1.82-2.77-3.65-4.2-5.45-6.11-7.66-9.39-4.93-13.27,3.08-1.22,2.53-.62,5,0,7.68,1.65,7.34,4.71,14.85,2.8,22.28-2.38,9.29-1.76,18.17.34,27.21-7.78-1.53-10.27,5-13.9,9.44-1.54,1.88-3.43,4.7-1.39,7.18s4.84,1.58,7.28.37c3.3-1.63,6.68-2.91,10.39-2.36,4.67.7,8.23-1.32,11.51-4.22C2589.9,525.48,2591.38,531.77,2587.39,537.31Z"/><path class="cls-3" d="M1291.31,420.2a92.63,92.63,0,0,1,43-21.8c25.17-5.56,50.34-6.88,75.89-1.21,14,3.1,27.59,6.7,39.44,14.64,23.27,15.56,37.51,37.66,44.21,64.66a203.36,203.36,0,0,1,6.46,51c-.07,7.77-.14,7.92-7.47,7.93-24.62,0-49.23.17-73.85-.66-4.72-.17-6.46-1.39-6.12-6.33.93-13.28-1.73-26-5.51-38.78s-10.84-20.5-23.65-23.3a15,15,0,0,1-2.73-1.21c2.08-3.72,1.09-6.12-3.24-5.16-6,1.34-12.45,1.5-18,5-3.5,2.2-7,2.47-11.23,1.06-7.77-2.6-15.85-4.3-23.79-6.37-.54-7-4.21-11.49-10.67-14C1302.24,441,1294.84,432.32,1291.31,420.2Z"/><path class="cls-5" d="M415.74,207.76c-18.36,0-31.34.07-44.32,0-35.53-.21-71-3.25-106.58-2-2.21.07-4.91.82-6.42-1.55-1.93-3,.91-4.84,2.22-7,8.42-13.76,19.41-24.12,35.69-28.06a36.22,36.22,0,0,1,10.79-1.27,18,18,0,0,0,15.2-6c9.4-10.27,21.16-17.19,33.84-22.27,22.83-9.15,45.26-8.07,66.72,4.65,4.84,2.87,9.75,5.52,13.83,9.63,3.07,3.09,7.09,3.87,11.9,3.41,18-1.7,35.83-5.52,54.25-1.94,8.65,1.68,17.61,2.24,26.39,4,21,4.2,39,14.25,55.77,27.15,6.06,4.68,12.08,9.35,16.93,15.32,1.4,1.73,3.2,3.91,2.12,6.25-1.19,2.61-4.06,1.64-6.25,1.64-35.28.05-70.66,1.66-105.81-.49C464.74,207.56,437.55,209.13,415.74,207.76Z"/><path class="cls-5" d="M1648.12,144c-3.51,2.74-6.61,1.79-9.48,1.79-26.63.09-53.33,1.3-79.87-.19-65.16-3.67-130.35-.13-195.47-2.15-13-.4-26.26-1-41.41-2,9.5-12.95,19.36-22.19,33.58-25.17,5.74-1.2,11.54-3.24,17.66-2.39,4.86.67,7.9-3.09,11.51-5.22,12.9-7.64,26.1-14,41.08-17.1,22.84-4.67,43.46.43,63,11.79,4.81,2.81,8.88,5.33,14.67,2.9,2.28-1,5.26-.33,7.92-.33,15.49,0,31-.79,46.46,0a151.53,151.53,0,0,1,66.31,18.9c6,3.37,11.61,7.62,17.37,11.51A17.38,17.38,0,0,1,1648.12,144Z"/><path class="cls-7" d="M741,515.69c.36,3.31.73,6.63,1.08,9.94l1,1.88q-.09,8.79-.17,17.59a2.18,2.18,0,0,0-1.29,2.34c.23,30-3.1,59.88-2.52,89.88L738.2,639c-1.78,10.2-1.55,19.84,2.95,29.78,10.76,23.78,11.79,48.92,8.5,74.54-.88,6.87-2.42,13.6-3.24,20.46-4.87,2.2-8.94,6.51-15,5.62-1.46-7.81-3.06-15.59-4.36-23.42-5.86-35.52-17.83-69.14-31.72-102.16-.35-.82-1.32-1.38-2-2.07.25-1.92.74-3.69.32-5.8C689.69,616,685,596.22,682.3,576c-2.62-19.91-8.38-39.16-13.14-58.61,22.42-2.06,44.68-4.9,65.58-14,3.39,2.56,3.45,6.78,5.08,10.2A2,2,0,0,0,741,515.69Z"/><path class="cls-8" d="M1350.61,709.72c-6.32-.34-10.77-4.74-16-7.44q-26.37-13.62-52.62-27.47c-7-3.71-13.75-7.81-20.58-11.8-2.55-1.49-4.92-3.34-8-3.48-5.73-8.32-8-18.31-12.94-29.29-3.54,13.38-5.84,24.44-1.72,36,1.53,4.31,1.76,9,2,13.73,1,20.63-.68,41.15-2,61.69-.31,5,.4,10-1.24,14.87-2.3,6.44-7.72,4.84-12.53,4.84-2.93-15-5.74-30-8.91-44.95-.5-2.35-.41-5.34-3-7-.73-10.49-4.12-20.45-6.24-30.66-2.89-13.9-4.67-27.93-6.17-42-1.57-14.78-3.73-29.5-4.2-44.4-.07-2.25-1.08-4.47-1.66-6.71a2.65,2.65,0,0,0,1-.68c19.12,4.49,38.42,4.43,57.76,1.86,7.13-.94,14.44-1,21.29-3.66l7.95-.07c.25,13.22-2.85,26.23-2.28,39.51.32,7.51,2.7,12.76,9.15,17.37,15.86,11.33,30.46,24.12,42.9,39.39,4.5,5.52,8,12.15,14.35,16.15-.19,1.55-.92,3.75.44,4.44C1351.88,702.3,1351.22,705.94,1350.61,709.72Z"/><path class="cls-3" d="M1347,695.57c-6.31-4-9.85-10.63-14.35-16.15-12.44-15.27-27-28.06-42.9-39.39-6.45-4.61-8.83-9.86-9.15-17.37-.57-13.28,2.53-26.29,2.28-39.51l24.87-6.87c-.25-1.4-.39-2.72-.72-4-8.5-31.69-21-61.53-40.72-88-3-4-4.44-8-3.66-12.89l6.12-5.64c2.44,4.29,4.29,8.94,7.79,12.58,11,11.52,30.4,12,42.38-3.25,10.7,1.36,21.72-1.36,32.24,2.46-7.75,22.24-7.69,45.4-9,68.55q-1.92,33.9-.82,67.72c.84,25.12.76,50.38,5.32,75.28.36,2,.38,4,2.4,5.15Z"/><path class="cls-7" d="M1318.89,475.09c-12,15.23-31.33,14.77-42.38,3.25-3.5-3.64-5.35-8.29-7.79-12.58.41-5.82-2.9-10.73-4-16.2s-4.37-6.76-7.93-2.55c-7.1,8.41-15.74,16.25-15.9,28.62a33.16,33.16,0,0,1-4.66,1.1c-11.61,1.1-22.59-1.84-33.45-5.46-1.85-5-2-10.15-2-15.39,0-3.44,1.32-7.26-1.73-10.24q0-6-.08-11.93a2.07,2.07,0,0,0,1.29-2.19c.26-9.27.57-18.54.77-27.82.1-4.75,1-9.18,4.06-13a1.21,1.21,0,0,0,1.17-1.16c4.76-2,9.4-4.41,14.75-4.49,1.42.19,2.75.17,3.36-1.48,2.64-2.24,1.64-6.43,4.57-8.51l.85.13.86-.11c8.81,4.08,17.57,5.53,26.22-.44l2.41,1.28,1.73,1.65c-.09,1.31-.17,2.61-.26,3.91-2.42,5.3,1.71,3.49,4,3.67l6,.5a3.78,3.78,0,0,0,4,1.49c5.72,3.09,8.5,8.29,10,14.27a122.79,122.79,0,0,0,6.64,18.78c3.53,12.12,10.93,20.79,22.79,25.41,6.46,2.52,10.13,7,10.67,14A51,51,0,0,1,1318.89,475.09Z"/><path class="cls-9" d="M1274.88,583.22c-6.85,2.63-14.16,2.72-21.29,3.66-19.34,2.57-38.64,2.63-57.76-1.86a2.42,2.42,0,0,0-3-1.37l-.41-.1-2.55-4c1.16-4.71.64-9.45.33-14.19l.33-2c1.16-3.87.53-7.81.47-11.72.82-.51,1.35-1.15.89-2.18,1-2.68.66-5.4.31-8.13l.33-1.95c1-2.52.58-5.13.46-7.72.83-.51,1.36-1.15.9-2.18l.48-6.12.33-2c-.39-7.61,3-14.6,3.59-22.06l.3-1.9.3-2.08,4.44-14.22c12.58,5.58,25.71,5.14,38.91,3.35,6-.82,6.84-.31,6.42,5.92-.33,4.91-2.6,9.62-1.75,14.66,1.9,11.33,2.59,22.8,5.87,34C1257.48,555.26,1266.45,569.06,1274.88,583.22Z"/><path class="cls-5" d="M2367.87,287.68c-11,0-22,.7-32.9-.12-47.77-3.61-95.59-1.09-143.38-1.88-.33,0-.66,0-1,0-2.26-.13-5,.5-5.93-2.38-.72-2.14.8-3.74,2.16-5.24,5.5-6,12-10.92,20.09-12,10.34-1.39,19.51-4.87,28.7-9.86,23-12.5,46.34-12.22,69,1.31a13.34,13.34,0,0,0,9.42,1.89c27.76-4.2,54.72-1.73,80.6,9.69,7.35,3.25,13.58,8.26,20.19,12.67,1.31.88,2.66,2.28,2.08,4.12-.64,2-2.6,1.78-4.2,1.78-15,0-29.92,0-44.88,0Z"/><path class="cls-4" d="M225.52,437.53c5.5,14.51,8.67,29.69,12.73,44.6,4.25,15.59,8.37,31.21,12.55,46.81-4.93.5-9.91,2-14.65,2.1-19.34.19-36.88-3.34-49.67-20.81-17.52-23.93-26-51-31.39-79.42-.18-.95-.52-1.95.81-2.81a4.83,4.83,0,0,1,3.47.51c14.32,6.79,29.49,9.36,45.24,9.05C211.58,437.42,218.55,437.53,225.52,437.53Z"/><path class="cls-10" d="M903,411.22H881c-7.32-8.13-14.45-16.46-23.62-22.66a21.32,21.32,0,0,1-3-2.66c-22.24-22.39-46.27-42.91-68-65.86-5.81-6.15-10.41-12.91-12.57-21.12-1.81-6.9,1.69-14.19,7.67-16.36,4-1.44,7.43-.78,11.25,1.51a177,177,0,0,1,29.34,22,376.86,376.86,0,0,1,30.45,31.43c13.82,16.22,25.7,33.69,37.21,51.47C894.45,396.23,898.59,403.81,903,411.22Z"/><path class="cls-10" d="M299.59,709c4.14,9.69,6.22,20,8.45,30.18-15.12-1.49-30.4-1.13-45.44-3.69a49.1,49.1,0,0,0-7-.25,534.1,534.1,0,0,1-68.12-6.13c-6.58-1-12.93-3.06-17.58-8.48-8-9.32-5.12-18.22,6.78-21.61a57.76,57.76,0,0,1,13.74-1.8c34.1-1.36,67.36,3.79,100.13,12.76C293.81,710.86,296.92,712.48,299.59,709Z"/><path class="cls-8" d="M599.93,532.08a17.87,17.87,0,0,1-.62-8.75c1.11-6.17-1.88-7.92-7.64-6.64,1.28-8.2,7.11-11.48,12.41-15.21,15-4.3,27.17-13.86,40-22.1,11.41-4.77,20-11.84,23.77-24.48,4.24-14.19,10-27.92,14.56-42,2.09-6.39,5.68-9.61,12.35-10.68,6.06-1,11.77.31,17.62.83,1.37,7-2.42,13.61-1.79,20.58-6.12,16.78-12,33.61-20.44,49.48-6.22,11.69-14.66,20.27-27.48,24.2-4.43,1.36-8.82,2.84-13.22,4.26-11.88,1.4-23.33,4.82-35,7.21-4,.82-5.35,3.08-5.5,6.92C608.73,522.6,606.91,528.82,599.93,532.08Z"/><path class="cls-9" d="M712.41,403c-5.85-.52-11.56-1.8-17.62-.83-6.67,1.07-10.26,4.29-12.35,10.68-4.58,14.09-10.32,27.82-14.56,42-3.77,12.64-12.36,19.71-23.78,24.48a247.81,247.81,0,0,0-7.32-28.48c-1.14-3.77-2.33-7.53-3.42-11.32-1.53-5.35-4.22-10.27-4-16.24.32-8.26-.11-8.28-9.6-9.81,1-2,2.47-3.92,2.83-6,1.24-7.3,6.2-11,12.33-13.88,2.91-1.35,5.74-2.86,8.61-4.29,3.36,2.9,1.55,6.81,1.93,10.27.66,5.83,3.06,9.31,7.85,10,8.13,1.16,15.45-1,20.06-8,4.34-6.59,8.52-13.53,8.21-22l17.33-.76C710.65,382.92,712.55,392.41,712.41,403Z"/><path class="cls-10" d="M917,411.22h-8c-3.86-12.51-11.47-23.1-17.83-34.3-15.06-26.48-32.54-51.52-46.68-78.54a64,64,0,0,1-4.49-11c-1.88-6.21.46-11.28,6-14.07,5.18-2.6,10.28-1.62,14.23,3.15A212.77,212.77,0,0,1,892,327.87a379.31,379.31,0,0,1,21.7,64.9C915.06,398.86,917.09,404.86,917,411.22Z"/><path class="cls-9" d="M649.48,501.56c4.4-1.42,8.79-2.9,13.22-4.26,12.82-3.93,21.26-12.51,27.48-24.2,8.43-15.87,14.32-32.7,20.44-49.48q.42,6,.85,11.92l.33,1.95c-2,12,2.56,21.77,10.56,30.24,5.23,5.54,8.8,12.1,12.21,18.77,2.84,5.54,3.46,11.2.17,16.85-20.9,9.15-43.16,12-65.58,14l-15.66-2.29A35.84,35.84,0,0,1,649.48,501.56Z"/><path class="cls-11" d="M681.11,331.73c0,7.76-.77,15.29-6.08,21.55-2.4,1.24-6-1.3-7.63,2.39l-2.21,1.62c-.53-3.55.08-7.27-1.62-10.66-1.32-2.64-9.17-4.06-10.7-2.1-1,2.13,2.74,2.62,1.31,5.13-10.46-2.68-16-11.63-22.95-18.46-4,3.57-3.51,7.56-3.72,11.46-.17,3.13,1.25,6.66-1.83,9.24a25.71,25.71,0,0,1-6.21-18.42c0-1-.31-2.23.16-3,5.93-9.22,9.31-20.35,19.48-26.43,1.36-.81,2.91-2.05,4.27-1.93,7,.57,11.75-1.64,15.1-8.27,2-3.92,7.23-3.81,11.32-4.69l6.64.24c5.52,5.61,9.95,11.68,8.72,20.2a1,1,0,0,0-.37,1.59l-3.56,6.91-1.9,1.53-.16.06c-4.67,1.94-1.29,3.85,0,5.77l.06.15C679.22,327.88,679.47,330,681.11,331.73Z"/><path class="cls-8" d="M625.68,351.9c3.08-2.58,1.66-6.11,1.83-9.24.21-3.9-.23-7.89,3.72-11.46,7,6.83,12.49,15.78,22.95,18.46,1.43-2.51-2.28-3-1.31-5.13,1.53-2,9.38-.54,10.7,2.1,1.7,3.39,1.09,7.11,1.62,10.66.54,5.29,2.94,9.9,5,14.66,2,4.48,4.92,6.79,9.9,6.05.5.55,1,1.1,1.47,1.65.31,8.45-3.87,15.39-8.21,22-4.61,7-11.93,9.14-20.06,8-4.79-.69-7.19-4.17-7.85-10-.38-3.46,1.43-7.37-1.93-10.27l1.64-1.77a1.54,1.54,0,0,0,1.62-1.91c.07-6.55-.93-11.23-9.09-13.43-5-1.35-9.1-7.36-10.41-13.63C626.85,356.35,626.23,354.13,625.68,351.9Z"/><path class="cls-10" d="M290.08,673.15c3,9.93,6.89,19.66,7.65,30.17-23.57-8.7-47.56-16.24-70.82-25.81a48.86,48.86,0,0,1-10.41-5.63c-5.65-4.11-7.58-9.24-5.19-14.15,2.86-5.86,8.34-8.64,14.5-7.27A227.71,227.71,0,0,1,279,669.07C282.53,670.83,285.81,673.39,290.08,673.15Z"/><path class="cls-11" d="M1224.9,364c-1.85-.71-3.74-1.31-5.53-2.14-8.58-3.95-10.33-7.57-7.24-16.25a112.48,112.48,0,0,1,10.46-21.92c5-8,15-14.85,27.88-9.88,7.87,3,16,5.16,21.91,12.22,6.81,8.1,7.91,10.59,3.66,20.25-1.15,2.61-2,5.71-5.1,7-2.83-3.07-2-6.83-1.74-10.37.34-4,.31-7.6-3.54-10.4-6.36,8.66-13,16.33-24.11,18.88.24-3.17,3.71-2.92,3.28-5.49-10.85-.85-11.76-.26-11.19,9.94.2,3.45-1.07,6.43-1.29,9.68l-2.73-.2C1228.45,363.41,1226.67,363.72,1224.9,364Z"/><path class="cls-11" d="M2580.06,343.62c-2.61,8.72-8.78,14.92-14.91,21.18-2.21,2.26-5,2.88-7.82,3.42-3.27-2.2-3.89-5.09-2.35-8.62,1.72-3.93,4.25-8-3.33-8.66-1.69-.14-1.47-2.69-1.48-4.3,0-6.13-3.8-8.56-9.16-9.88-4.13-1-8.51-1.17-12.35-3.28-.32-.62-.65-1.24-1-1.86-.13-.65-.27-1.3-.41-1.94,0-2,.05-4.06.08-6.09l.3-1.9c3.34-5.89,9.74-5.1,15-6.83a32.19,32.19,0,0,0,12.6,0c11.6,3,21.24,8.35,25,20.8.11.64.22,1.27.34,1.9-.05,1.37-.09,2.74-.13,4.1Z"/><path class="cls-8" d="M2528.66,333.48c3.84,2.11,8.22,2.26,12.35,3.28,5.36,1.32,9.13,3.75,9.16,9.88,0,1.61-.21,4.16,1.48,4.3,7.58.62,5,4.73,3.33,8.66-1.54,3.53-.92,6.42,2.35,8.62,1,6-.54,12.36,2.82,18-3.14,8.36-11.12,7.8-17.52,8.21-4.53.29-11,.84-13.38-5.77a1,1,0,0,0-.22-1.09c.33-3.29.76-6.57.94-9.87.11-1.95.52-4.61-1.31-5.54-6.27-3.2-5-8.82-4.88-14C2524,349.71,2523.07,340.92,2528.66,333.48Zm-2.19,26.31c1.68,4,4.81,4.6,8,4.64.83,0,1.47-1.4,1-2.31-1.54-3.19-4.9-2.53-7.57-3.29C2527.76,358.77,2527.43,359.16,2526.47,359.79Z"/><path class="cls-8" d="M619.78,413.53c9.49,1.53,9.92,1.55,9.6,9.81-.24,6,2.45,10.89,4,16.24,1.09,3.79,2.28,7.55,3.42,11.32-5.57,5.22-8.47,12.38-13.19,18.21-4.89,6-9,12.8-16.18,16.63-1.48-11.32,1.05-22.42,2.87-33.39,1.13-6.79-.93-14,2.72-20.4,3.15-2.74,3.52-6.62,4.25-10.35C618.09,418.91,618.94,416.22,619.78,413.53Z"/><path class="cls-12" d="M537.81,300.88c-17.41,4.19-33.72,2.2-48.63-7.36a37.26,37.26,0,0,1-15.75-40.12c.66-2.74,2.23-4.13,4.91-3.77,2.27.31,4.43,1.31,6.7,1.69,4,.69,4.37,2.63,3.43,6.37-2.13,8.51-2.49,17,2.46,25,1.69,2.72,3.45,4.79,6.92,4.85,6.64.12,13.63,1.65,19.82-.54,6.78-2.41,10.68-.14,14.54,4.7C534.42,294.48,537.79,296.49,537.81,300.88Z"/><path class="cls-4" d="M253.5,539.42c4.86,15.13,9.55,30.3,12.22,46-14.3-1.52-26.48-8.1-37.55-16.66-5.54-4.29-5.15-9-.43-14.59a26,26,0,0,1,8.81-6.36C242.22,545.06,247.85,542.23,253.5,539.42Z"/><path class="cls-8" d="M1232.35,365.49c.22-3.25,1.49-6.23,1.29-9.68-.57-10.2.34-10.79,11.19-9.94.43,2.57-3,2.32-3.28,5.49,11.14-2.55,17.75-10.22,24.11-18.88,3.85,2.8,3.88,6.42,3.54,10.4-.3,3.54-1.09,7.3,1.74,10.37-1.73,5.38-3,11-8.22,14.41-2.7-6.12-2.7-6.12-9.31-4.22,2,4,6.12,3.14,9.41,4.12,0,1.21,0,2.43-.07,3.65l-5.93,3.44c-8.65,6-17.41,4.52-26.22.44a1.9,1.9,0,0,0-.48-1.36C1230.86,371,1231.61,368.23,1232.35,365.49Z"/><path class="cls-12" d="M1696.46,325.67c11.5-3,15.72-9.2,13.56-20.1a12.92,12.92,0,0,0-1.52-4.71c-5.54-8.11-3.07-14.67,3.55-20.64a24.21,24.21,0,0,0,2.66-3.74,11.68,11.68,0,0,1,4,6.74c3.1,13.55,3.76,26.95-2.92,39.76-6.2,11.89-16.57,16.46-29.48,16.63-4.1.05-6.35-1.42-6-5.77.18-2.59-.88-5.62,1.45-7.5,1.09-.87,3.19-.49,4.83-.67Q1691.49,329.58,1696.46,325.67Z"/><path class="cls-8" d="M1161.22,425.92c5.41,1.57,5.27,6.69,5.19,10.37-.16,8,4.82,11.68,10.35,15.34,3.27,2.16,6.66,4.13,10,6.19L1187,480c-7.36-2.43-11.41-8.89-16.32-14.07-6.05-6.4-11.29-13.6-16.58-20.68-4.53-6.08-3.81-13.16-2.62-20.08a4.14,4.14,0,0,1,4.48-3.15c2.21.09,2.39,1.83,2.25,3.59-1.91,1.95-.93,4.22.87,4.48C1162,430.52,1160.44,427.35,1161.22,425.92Z"/><path class="cls-9" d="M1347,695.57l2.08-1.32,3.46-3.4c6.65-6.53,10.76-6,13.82,2.81,2.85,8.28,9.22,14.08,13.12,21.52-.12,1.09.59,1.57,1.43,2l.05.09.09.4c.15,3,5.52,5.57,1.63,8.57-3.6,2.79-6.72-.22-9.35-3-2.83-2.94-6.62-4.24-10.19-6-4.4-2.11-9.5-3.13-12.48-7.58.61-3.77,1.27-7.41-3.22-9.7C1346,699.32,1346.76,697.12,1347,695.57Z"/><path class="cls-8" d="M1318.89,475.09a51,51,0,0,0,5.88-15.47c7.94,2.07,16,3.77,23.79,6.37,4.22,1.41,7.73,1.14,11.23-1.06,5.5-3.46,11.91-3.62,18-5,4.33-1,5.32,1.44,3.24,5.16-4.4.32-6.91,4.51-11.49,4.85,1.67,2.11,3.63,1.07,5,1.91-5.59,5.51-5.59,5.44-11.58,5.4-3.94,0-7.88.16-11.82.26C1340.61,473.73,1329.59,476.45,1318.89,475.09Z"/><path class="cls-11" d="M2596.19,767.68c6.37,2.72,11.82-.88,17.55-2.58,2.77,7.11,2.29,14.57,2.45,22h-52.46c2.45-5,7.55-4.59,11.88-5.85C2583.85,778.84,2592.64,777.22,2596.19,767.68Z"/><path class="cls-11" d="M731.45,769.4c6,.89,10.09-3.42,15-5.62,0,3.69.64,7.29,2.76,10.35,2.74,4,3.66,8.37,3.93,13l-44.7-.3c1-3.8,4.3-5,7.44-5.44C723.48,780.37,728,775.61,731.45,769.4Z"/><path class="cls-13" d="M1187,480l-.21-22.17c8.82-.78,10.06-2,12.24-12.18,3,3,1.7,6.8,1.73,10.24.06,5.24.19,10.41,2,15.39.18,3.31.35,6.62.53,9.93l-4.44,14.22C1192.87,491.84,1189.6,486.16,1187,480Z"/><path class="cls-3" d="M1569.61,251.64c-5.22,0-9.29,0-11.18-5.32-.58-1.62-2.19-3.15-3.14-4.89-2-3.56-5.53-7.77-3.41-11.12,2.7-4.28,8.87-3.06,13.58-4.1a2.4,2.4,0,0,1,3,1.79c2.24,6.11,7,10.31,11.63,14.45,3.27,2.9,2.5,5.26-.92,6.71S1572.61,252.62,1569.61,251.64Z"/><path class="cls-3" d="M1240.91,117.72a31.84,31.84,0,0,1-4.62-.9c-6.84-2.15-7.29-4.74-1.81-9.67,3.46-3.12,6.8-6.38,8.4-10.89,1-2.81,2.29-4.76,5.7-3.91,4.1,1,8.7.75,11.63,4.66a2,2,0,0,1,.24.92C1261.55,105.15,1249.6,118.09,1240.91,117.72Z"/><path class="cls-7" d="M2184.32,339.41c5.75,4,12.17,2.5,18.27,1.71,2.88-.38,5.88-2.27,8.54-.59a90.6,90.6,0,0,1,11.78,9.06c1.46,1.3.43,3.08-1.3,3.92a16.29,16.29,0,0,1-7.65,1.86c-13-.36-24.74-3.88-33.95-13.67C2181.77,341.53,2183.44,341.22,2184.32,339.41Z"/><path class="cls-7" d="M1045,339.66c8.18.35,11.86,7.24,17.82,11.43-14,7.67-29.44,4.2-45.32-9.64,2.12.07,4.33.36,5.58-2,5.72,3.8,11.93,2.21,18,1.64A3.61,3.61,0,0,0,1045,339.66Z"/><path class="cls-4" d="M485.06,491.62c-5.23-15.86-7.54-32.41-11.41-48.59-1.06-4.43-2.87-8.78-2.4-13.5a80.21,80.21,0,0,1,17.8,43.24A32.58,32.58,0,0,1,485.06,491.62Z"/><path class="cls-12" d="M1348.12,327.76c-.72-.05-2.38-.07-4-.27-2.5-.3-4.4-1.55-5-4.08s1.46-3.36,2.94-4.63a32.25,32.25,0,0,0,7.15-8.13,9.08,9.08,0,0,1,14-2.35,4.34,4.34,0,0,1,1.51,3.49C1364.75,319.63,1356.83,327.74,1348.12,327.76Z"/><path class="cls-13" d="M2184.32,339.41c-.88,1.81-2.55,2.12-4.31,2.29l-1.85-.91-1.67-1.25c-7-5.64-14.18-11.17-14-21.88,5.62-1,10.14,3,15.29,2.2l2.4,1.68q.39,4.06.76,8.13a1.91,1.91,0,0,0,1.06,2.26Z"/><path class="cls-13" d="M1023.05,339.46c-1.25,2.35-3.46,2.06-5.58,2-9.28-5.44-15.17-13.1-16.92-24,4.82-.87,7.85,1.59,11.32,2.19,4.93.85,7.47,3.54,7,8.9C1018.45,332.77,1021.06,336.05,1023.05,339.46Z"/><path class="cls-14" d="M447.33,401.21c-5.86,2-12.1.39-18,1.93.95-4.94-2.69-13.44,3.15-14S445,393.89,447.33,401.21Z"/><path class="cls-8" d="M2428,411.64c-2.27,2.48-5,4.7-8.18,5.3-4.44.83-8.7,0-9.81-5.66C2417.11,406.08,2419.42,406.13,2428,411.64Z"/><path class="cls-4" d="M681.6,379.65c-.49-.55-1-1.1-1.47-1.65,6.3-.27,12.65-1.81,18.81.89Z"/><path class="cls-11" d="M1256.82,374.65l5.93-3.44c1.69,1,2.08,2.51,1.9,4.31l-5.42.41Z"/><path class="cls-15" d="M617.25,421.6c-.73,3.73-1.1,7.61-4.25,10.35.3-4.31-1-8.86,1.84-12.8Z"/><path class="cls-7" d="M2555.21,314.86a32.19,32.19,0,0,1-12.6,0A15.07,15.07,0,0,1,2555.21,314.86Z"/><path class="cls-15" d="M1161.22,425.92c-.78,1.43.79,4.6-2.17,4.16-1.8-.26-2.78-2.53-.87-4.48Z"/><path class="cls-4" d="M1696.46,325.67q-5,3.91-9.94,0Z"/><path class="cls-4" d="M667.4,355.67c1.64-3.69,5.23-1.15,7.63-2.39C673.32,356.71,670.08,355.3,667.4,355.67Z"/><path class="cls-7" d="M676.44,289.45l-6.64-.24C672.1,287.3,674.32,287,676.44,289.45Z"/><path class="cls-10" d="M1259.23,375.93l5.42-.41c.73,4.19-2.6,1.13-3.69,2.06Z"/><path class="cls-10" d="M1264.7,385.16c-2.29-.18-6.42,1.63-4-3.67Z"/><path class="cls-10" d="M681.11,331.73c-1.64-1.71-1.89-3.85-1.86-6.07C681.57,327.17,681.22,329.49,681.11,331.73Z"/><path class="cls-4" d="M1189.84,579.56l2.55,4C1189.79,583.33,1187.86,582.69,1189.84,579.56Z"/><path class="cls-10" d="M679.19,325.51c-1.31-1.92-4.69-3.83,0-5.77C679.18,321.66,679.18,323.59,679.19,325.51Z"/><path class="cls-14" d="M2529,387.55a1,1,0,0,1,.22,1.09l-5.13.41C2525.4,387.38,2527.26,387.62,2529,387.55Z"/><path class="cls-14" d="M1224.9,364c1.77-.25,3.55-.56,4.72,1.32C1227.86,365.52,1226.14,365.59,1224.9,364Z"/><path class="cls-10" d="M1274.68,387.15a3.78,3.78,0,0,1-4-1.49C1272.21,385.56,1273.67,385.75,1274.68,387.15Z"/><path class="cls-14" d="M2515.69,391.51a3.5,3.5,0,0,1-3.58,1.53C2513,391.8,2514.32,391.6,2515.69,391.51Z"/><path class="cls-4" d="M1192.8,583.65a2.42,2.42,0,0,1,3,1.37,2.65,2.65,0,0,1-1,.68Z"/><path class="cls-14" d="M2521.69,389.51a3.51,3.51,0,0,1-3.59,1.53C2519,389.81,2520.31,389.6,2521.69,389.51Z"/><path class="cls-14" d="M1045,339.66a3.61,3.61,0,0,1-3.88,1.44C1042.08,339.79,1043.49,339.64,1045,339.66Z"/><path class="cls-14" d="M1224.32,383.58c-.61,1.65-1.94,1.67-3.36,1.48A3.66,3.66,0,0,1,1224.32,383.58Z"/><path class="cls-4" d="M2180.19,321.54l-2.4-1.68A2.66,2.66,0,0,1,2180.19,321.54Z"/><path class="cls-10" d="M679.33,319.68l1.9-1.53Z"/><path class="cls-10" d="M684.79,311.24a1,1,0,0,1,.37-1.59A2.28,2.28,0,0,1,684.79,311.24Z"/><path class="cls-10" d="M2479,445.69c.2.9-.33,1.29-1.06,1.55A3.21,3.21,0,0,1,2479,445.69Z"/><path class="cls-4" d="M711.8,437.49l-.33-1.95a10.1,10.1,0,0,1,.88,1.32C712.4,437,712,437.28,711.8,437.49Z"/><path class="cls-4" d="M1200.21,431.52a2.07,2.07,0,0,1-1.29,2.19Z"/><path class="cls-14" d="M1206.21,389.55a1.21,1.21,0,0,1-1.17,1.16A3.92,3.92,0,0,1,1206.21,389.55Z"/><path class="cls-14" d="M1198.56,497.5l-.3,1.9a7.57,7.57,0,0,1-.38-1.43C1197.87,497.83,1198.32,497.65,1198.56,497.5Z"/><path class="cls-14" d="M1230.12,373.73a1.9,1.9,0,0,1,.48,1.36l-.86.11-.85-.13A2.6,2.6,0,0,1,1230.12,373.73Z"/><path class="cls-10" d="M741,515.69a2,2,0,0,1-1.21-2.14Z"/><path class="cls-14" d="M738.2,639l.92-1.68A3.11,3.11,0,0,1,738.2,639Z"/><path class="cls-10" d="M2580.06,343.62l.33-2a7.19,7.19,0,0,1,.39,1.48C2580.79,343.28,2580.32,343.46,2580.06,343.62Z"/><path class="cls-4" d="M2527.65,321.69l-.3,1.9a7.65,7.65,0,0,1-.4-1.43C2526.94,322,2527.4,321.85,2527.65,321.69Z"/><path class="cls-7" d="M2176.49,339.54l1.67,1.25C2177.14,341,2176.69,340.43,2176.49,339.54Z"/><path class="cls-15" d="M1380.86,717.13c-.84-.38-1.55-.86-1.43-2l1.93.71A2.07,2.07,0,0,1,1380.86,717.13Z"/><path class="cls-4" d="M1191.86,549.52c.46,1-.07,1.67-.89,2.18C1191.26,551,1191.56,550.24,1191.86,549.52Z"/><path class="cls-10" d="M2580.52,337.56c-.12-.63-.23-1.26-.34-1.9a9.46,9.46,0,0,1,.86,1.27C2581.09,337,2580.7,337.35,2580.52,337.56Z"/><path class="cls-4" d="M1190.5,563.42l-.33,2a8.09,8.09,0,0,1-.39-1.48C1189.77,563.75,1190.25,563.58,1190.5,563.42Z"/><path class="cls-10" d="M743.1,527.51l-1-1.88C742.45,526.26,742.77,526.88,743.1,527.51Z"/><path class="cls-4" d="M2527.27,329.68c.14.64.28,1.29.41,1.94a11.45,11.45,0,0,1-.94-1.29C2526.69,330.24,2527.08,329.9,2527.27,329.68Z"/><path class="cls-4" d="M1193.86,529.54c.46,1-.07,1.67-.9,2.18Z"/><path class="cls-4" d="M2182,331.93a1.91,1.91,0,0,1-1.06-2.26Z"/><path class="cls-14" d="M646.81,385.66a1.54,1.54,0,0,1-1.62,1.91Z"/><path class="cls-4" d="M1192.5,539.44l-.33,1.95a7.89,7.89,0,0,1-.39-1.48C1191.77,539.78,1192.25,539.6,1192.5,539.44Z"/><path class="cls-4" d="M741.64,547.44a2.18,2.18,0,0,1,1.29-2.34Z"/><path class="cls-14" d="M319.9,783.87a3.35,3.35,0,0,1,1.4,3.07l-1,.17-.94-.27C319.57,785.85,319.74,784.86,319.9,783.87Z"/><path class="cls-4" d="M1194.67,521.46l-.33,2a7.84,7.84,0,0,1-.41-1.49C1193.92,521.8,1194.41,521.62,1194.67,521.46Z"/><path class="cls-1" d="M2448.07,467.72c5.61,6,10.44,12.74,17.36,17.43,9.11,6.18,16.18,6.26,25.57.26,1.32-.84,2.29-2.48,5.14-1.86,0,11.24,0,22.67,0,34.09,0,6.76,1.08,13.13,6.14,18.16,1.08,26.74,2.59,53.44,5.15,80.08,2,20.71,2.87,41.53,4.88,62.23,2.92,30.19,3.95,60.55,8.33,90.6-4.46,8.41-12.68,10.55-21,12.63-4.29,1.07-9.34.72-11.66,5.79l-40.22-.19q0-33.44-.1-66.86c0-8.72-.08-8.8-8.61-8.81q-47.42-.06-94.83,0c-2,0-4,0-6,0-7.68-.15-7.8-.15-7.84-7.57-.09-14,0-27.94,0-41.91,0-7.32,0-14.64,0-22,.05-9.56.07-9.62,10.07-9.64q33.95-.06,67.88,0c7.66,0,15.31-.18,23,.05,4.87.15,7.17-1.16,7.11-6.65-.26-21.29-.29-42.58,0-63.87.08-5.79-2.61-6.36-7.23-6.34q-43.92.18-87.84,0c-15.08,0-12.82,1.94-13-13.42s-.07-30.61,0-45.91c0-8.46.1-8.54,8.86-8.55q48.91,0,97.83,0,3.49,0,7-.06c2.45,0,3.52-1.39,3.57-3.77C2447.76,477,2447.93,472.36,2448.07,467.72Z"/><path class="cls-1" d="M649.48,501.56a35.94,35.94,0,0,0,4,13.56,70.61,70.61,0,0,0-2.16,18.56c0,12.53-.51,25.06-.8,37.59a9.56,9.56,0,0,0-1,2.76,378.14,378.14,0,0,0,4.75,77.29c1.27,7.5,3.52,15,2.62,22.63-2,17.41-3.38,34.91-6.87,52.14-2.62,13-4.63,26-6.92,39.09C636.19,772.4,630.32,781,619,782.05c-2.52.24-4.36,2.73-5.66,5.1q-126.09,0-252.18.07c-1.32,0-2.65-.17-4-.27a3.41,3.41,0,0,1,.33-1.66c17.58-1,35.16-1.9,52.73-3,6.67-.41,7.86-1.58,8.63-8.43.41-3.62.06-7.32.23-11,1.41-29.82,3.46-59.6,4.82-89.43,1.19-25.83,2.84-51.65,4.08-77.49.69-14.23.31-28.53,2.38-42.84,2.18,12.77,4.31,25.55,6.55,38.31,8.71,49.66,19.45,98.93,29.58,148.31,2.2,10.72,4.58,21.4,6.39,32.18.73,4.32,2.74,5.53,6.65,5.26,11.26-.76,22.54-1.33,33.8-2.15,16.55-1.21,33.07-3,49.63-3.63,6-.23,7.28-3.06,7.87-7.61,1.42-11.18,2.71-22.37,4.14-33.54q7.9-62.13,15.85-124.26c3.11-24.63,6.08-49.29,9.12-73.94,7-3.26,8.8-9.48,9.06-16.39.15-3.84,1.5-6.1,5.5-6.92C626.15,506.38,637.6,503,649.48,501.56Z"/><path class="cls-9" d="M1672.89,785.6c-9.51-8-6.91-18.57-5.73-28.64.53-4.54,2.31-8.94,3.53-13.4,6.77-11.36,13.5-22.74,20.31-34.07,10.09-16.79,22-32.26,33.69-47.94,4.88-4.06,9.36-8.49,12.56-14a24.83,24.83,0,0,1,5,.2c13.28,3.24,26.26,3,38.8-3.06,1.57,1.72,3.29,3.48,3.2,6-.27,7,1.5,13.75,2,20.63,1.26,16.78,4.46,33.21,7.64,49.7,2.92,15.1,9.16,28.87,15,42.86l-2.64,5.31c-4.94,2.45-9.36,6.15-15.27,6.21-10.17-6.21-17.38-15.44-24.91-24.34-1.6-2.52-3.1-5.11-4.83-7.53-11.29-15.76-21.9-31.82-24-51.92-.48,5.43-1,10.79-.34,16,.74,5.87,2.43,11.62,3.92,17.38.73,2.86,1.86,5.42.69,8.63-6.57,18-11.57,36.69-21.12,53.56q-18.9,0-37.79.1C1679.23,787.21,1675.91,787.36,1672.89,785.6Z"/><path class="cls-14" d="M2048.67,786.93c4.61-23.06,9.14-46.14,13.85-69.19q19.5-95.52,39.15-191c1-4.79,2.3-9.5,3.93-16.17,1.27,26.16-1.93,50.2-1.3,74.3,0,1.65-.36,3.3-.36,5,0,34.22-1.61,68.42-2.34,102.63-.56,26.23-1.56,52.46-1.75,78.71,0,5.26-.92,10.52-1.41,15.78Z"/><path class="cls-14" d="M1936.72,579.42c4.79,17.51,7.78,35.41,11.43,53.16q15.87,77.17,31.73,154.35h-51.13c-.24-20.56.17-41.15-.89-61.67-1.39-26.81-1-53.65-2.11-80.43-.92-21.83-1.46-43.63-1.31-65.46Z"/><path class="cls-14" d="M731.45,769.4c-3.5,6.21-8,11-15.61,12-3.14.44-6.43,1.64-7.44,5.44l-49.25.3c-.36-3.58-.63-7.27-2.44-10.43s-1.25-6.25.07-9.35c14-19.85,24.09-41.64,31.33-64.7,4.06-12.94,6.3-26.42,4.55-40a46.2,46.2,0,0,1,.15-15.48q.29-2.73.56-5.46c.68.69,1.65,1.25,2,2.07,13.89,33,25.86,66.64,31.72,102.16C728.39,753.81,730,761.59,731.45,769.4Z"/><path class="cls-14" d="M1237.48,756.57c1.64-4.86.93-9.91,1.24-14.87,1.3-20.54,3-41.06,2-61.69-.22-4.7-.45-9.42-2-13.73-4.12-11.6-1.82-22.66,1.72-36,5,11,7.21,21,12.94,29.29,1,24.91,3.55,49.72,14.94,72.24,15.28,30.23,41.43,46.46,74,53.21,2.57.54,5.32.27,7.59,1.93l-119.32,0c.05-4.88,3.41-6.84,7.38-8a27.48,27.48,0,0,0,10.49-5.23c1.24-1.08,2.57-2.85.72-4.07C1244.08,766.27,1242.94,759.5,1237.48,756.57Z"/><path class="cls-11" d="M1808.89,763.79c-5.85-14-12.09-27.75-15-42.85-3.18-16.49-6.38-32.92-7.64-49.7-.52-6.88-2.29-13.65-2-20.63.09-2.49-1.63-4.25-3.21-6,2.53-1.5,5-3.16,7.63-4.48,9.93-5,14.87-3.19,20.47,7.37,1.81,10.69,3.39,21.43,5.48,32.07,4.92,24.93,10.37,49.77,22,72.64,3.13,6.15,5,12.06,3.3,18.84-5.75.1-10.57,3.59-16.12,4.42C1817.45,773.31,1814.5,766.87,1808.89,763.79Z"/><path class="cls-14" d="M2596.19,767.68c-3.55,9.54-12.34,11.16-20.58,13.54-4.33,1.26-9.43.82-11.88,5.85l-23.32-.07-.39-16.2c5.19-8,6-17.48,8-26.41,5.81-25.9,9.79-52.1,10.42-78.71.1-4.3,2.18-8.33,1.89-12.84,5.51,11,8.32,22.73,11.66,34.27,6.84,23.56,13.22,47.26,20,70.86C2592.88,761.33,2592.83,765.3,2596.19,767.68Z"/><path class="cls-14" d="M1839.87,771.09c1.71-6.78-.17-12.69-3.3-18.84-11.61-22.87-17.06-47.71-22-72.64-2.09-10.64-3.67-21.38-5.48-32.07,7-.66,13.4-3.38,19.9-5.81,5.23-2,9.74-5.66,15.47-6.41q-.09,69-.16,138.07l-.55-.1-.34.46Z"/><path class="cls-11" d="M1720.35,787.1c9.55-16.87,14.55-35.52,21.12-53.56,1.17-3.21,0-5.77-.69-8.63-1.49-5.76-3.18-11.51-3.92-17.38-.66-5.21-.14-10.57.34-16,2.13,20.1,12.74,36.16,24,51.92,1.73,2.42,3.23,5,4.83,7.53l-11.82,36.21Z"/><path class="cls-14" d="M1754.24,787.19,1766.06,751c7.53,8.9,14.74,18.13,24.91,24.33-.77,4-2.87,7.62-2.57,11.8Z"/><path class="cls-9" d="M1237.48,756.57c5.46,2.93,6.6,9.7,11.7,13.06,1.85,1.22.52,3-.72,4.07a27.48,27.48,0,0,1-10.49,5.23c-4,1.18-7.33,3.14-7.38,8l-24,.08c.57-1.53.85-4.16,1.77-4.42,8.77-2.41,10.22-10.63,14-17,.85-1.42,1.75-2.81,2.62-4.22C1229.76,761.41,1235.18,763,1237.48,756.57Z"/><path class="cls-11" d="M656.78,767.38c-1.32,3.1-1.93,6.08-.07,9.35s2.08,6.85,2.44,10.43H613.3c1.3-2.38,3.14-4.87,5.66-5.11,11.36-1.08,17.23-9.65,24.14-16.87C647.19,768.88,652.08,767.5,656.78,767.38Z"/><path class="cls-11" d="M2540,770.8l.39,16.2-52.41.13c2.32-5.07,7.37-4.72,11.66-5.79,8.29-2.08,16.51-4.22,21-12.63C2526.9,771.17,2533.48,770.84,2540,770.8Z"/><path class="cls-11" d="M1788.4,787.11c-.3-4.18,1.8-7.85,2.57-11.8,5.91,0,10.33-3.75,15.27-6.2,2.29,2.64,4.51,5.34,6.89,7.88s4.77,5.34,8.95,3.86c1.77,3.25,6.38,1.84,8.89,6.26Z"/><path class="cls-4" d="M1822.08,780.85c-4.18,1.48-6.57-1.3-8.95-3.86s-4.6-5.24-6.89-7.88l2.64-5.31c5.62,3.07,8.57,9.51,14.87,11.71C1823.19,777.29,1822.64,779.07,1822.08,780.85Z"/><path class="cls-8" d="M357.48,785.29a3.41,3.41,0,0,0-.33,1.66,58.38,58.38,0,0,1-14,0C347.6,783.53,352.68,785.58,357.48,785.29Z"/><path class="cls-8" d="M1843.43,773.75l.34-.46.55.1a4.34,4.34,0,0,1,.52,1.49C1844.38,774.5,1843.9,774.13,1843.43,773.75Z"/><path class="cls-8" d="M1844.48,635.32c-5.73.75-10.24,4.44-15.47,6.41-6.5,2.43-12.89,5.15-19.9,5.81-5.6-10.56-10.54-12.38-20.47-7.37-2.63,1.32-5.1,3-7.63,4.48-12.53,6-25.51,6.29-38.79,3.05a24.9,24.9,0,0,0-5-.2L1707,639c-.15-2.45,1.59-3.29,3.39-4.3a30.66,30.66,0,0,0,10.27-9.19c6.21-8.86,6.24-8.83,16-5.67,1.88.61,3.94.87,5.66,1.79,10.58,5.64,19.38,4.23,26.07-6.22,4,1.29,8,2.9,12.16,3.78a20.8,20.8,0,0,0,14.35-1.93l23.91-8.08q4.59-3.79,9.17-7.6c2.44-.78,4.87-1.6,7.33-2.32,1.28-.38,3.41-.26,3.48.69.64,8,7.86,4.63,11.7,7l2.1.71c1.23,4,.52,7-4.08,8.33-3.54,1-7.17,2.13-10.71,1.43-9.66-1.91-16,3.77-23.38,8.81,4.48,2.87,8.73,2.61,13,2.74,11.52.35,23,.87,34.56,1.32C1856,631.44,1849.19,629.8,1844.48,635.32Z"/><path class="cls-14" d="M1994.71,531.42c13.92-.46,26.47-4.48,36.78-14.22,1.94-1.83,3.73-3.79,6.68-3.79.07,8.73-2.65,17-4.59,25.34-8,33.91-12.09,68.43-17.36,102.78-.39,2.54.15,5.4-3,7.71-2.21-15.37-4.9-30.34-6.4-45.42-2.3-23.13-6.77-45.82-11.83-68.44A23.67,23.67,0,0,1,1994.71,531.42Z"/><path class="cls-9" d="M1850.5,606.94c-3.84-2.36-11.06,1-11.7-7-.07-1-2.2-1.07-3.48-.69-2.46.72-4.89,1.54-7.32,2.32-.76-8.47,2.37-15.62,7.51-22.08l8.87-.07c10.55,2.49,21.37,2.87,32.09,4.08,8.91,1,9.51,1.71,6.13,10.3-1.44,3.67-3.06,7.27-4.59,10.89-.76-.63-1.58-1.19-2.29-1.88-2-1.92-2.94-6.15-6.64-4.33s-2.34,5.79-2.22,9a6.14,6.14,0,0,0,1.45,3.6c3,3.32,2.31,7.36,2.59,11.23-2.1,3.64-2.46,9.23-8.94,8-11.54-.46-23.06-1-34.58-1.33-4.22-.13-8.47.13-13-2.74,7.37-5,13.72-10.72,23.38-8.81,3.54.7,7.17-.38,10.71-1.43,4.6-1.36,5.31-4.29,4.08-8.33,3.08-.45,4.63-2.06,3.82-5.26a1.75,1.75,0,0,0-2.21-1.21c-2.67.49-3.65,2.3-3.72,4.8C1850.48,606.3,1850.5,606.62,1850.5,606.94Z"/><path class="cls-14" d="M1844.38,579.43l-8.86.07c-4.15-2.13-6.06.13-7.33,3.71-3.07,8.68-7.2,17-9.37,26l-23.91,8.08c-.12-23.93-.69-47.87.29-71.8,1.62.08,3.47-.24,4.55,1.27,11,15.37,27.48,21.46,44.54,26.64Z"/><path class="cls-4" d="M1936.72,579.42l-12.28,0c-2.76-22.78-1-45.72-2.06-68.66C1927.76,533.5,1933.48,556.2,1936.72,579.42Z"/><path class="cls-8" d="M1870.9,622.31c-.28-3.87.37-7.91-2.59-11.23a6.14,6.14,0,0,1-1.45-3.6c-.12-3.2-1.39-7.22,2.22-9s4.68,2.41,6.64,4.33c.71.69,1.53,1.25,2.29,1.88C1879.56,612.16,1875.36,617.29,1870.9,622.31Z"/><path class="cls-14" d="M607.41,485.74c7.16-3.83,11.29-10.6,16.18-16.63,4.72-5.83,7.62-13,13.19-18.21a247.81,247.81,0,0,1,7.32,28.48c-12.85,8.24-25,17.8-40,22.1C605.25,496.25,603.88,490.48,607.41,485.74Z"/><path class="cls-14" d="M344.53,599.33a31,31,0,0,0,14.07-2c1.73,9-1.29,17.79-.82,26.77.37,7.25-.53,14.57-.67,21.86s0,14.55-1.13,22Q350.25,633.67,344.53,599.33Z"/><path class="cls-14" d="M330.15,519.39a32.11,32.11,0,0,1,20.54,8.54c3.15,2.93,2.49,4.94-1.57,6.51-5.14,2-10.53.58-15.79,1C330.74,530.41,331,524.79,330.15,519.39Z"/><path class="cls-14" d="M1678.33,715.42c-5.92,1.1-11.75,1.47-17.76,0-11.37-2.74-18.81-9.36-21.92-20.67a112.37,112.37,0,0,1-3.8-22.5c-1.2-18.52-2.38-37-2.1-55.64.34-22.93-.07-45.87.13-68.8a377.86,377.86,0,0,1,3.78-52.48c3.54-23.7,19.66-34.18,42.88-28.18,9.63,2.48,15.66,8.47,18.81,17.46a88.31,88.31,0,0,1,4.11,21.44c.52,5.93,1.21,11.84,1.83,17.76-5.45,3.45-9.6,8-11.58,14.23-1.3,4.08-2.67,8.16-3.62,12.32a50.46,50.46,0,0,1-14,25.61c-6.65,6.53-7,15.78-1.58,23.35a74.66,74.66,0,0,0,5.26,5.88c-1,25.6-1.47,51.24,4.11,76.4C1685.59,693.79,1682.85,704.56,1678.33,715.42Z"/><path class="cls-11" d="M1678.78,605.22a74.66,74.66,0,0,1-5.26-5.88c-5.45-7.57-5.07-16.82,1.58-23.35a50.46,50.46,0,0,0,14-25.61c1-4.16,2.32-8.24,3.62-12.32,2-6.24,6.13-10.78,11.58-14.23a4.46,4.46,0,0,0,1-.17c22.83-9.06,39.79-3,55.31,17.57,5.21,6.89,5.65,13.87,2.05,21.35-1.43,3-3.16,5.81-4.87,8.63-1.3,2.14-2,4.18-.25,6.38,8.4,10.42,4.9,19.62-2.93,28.36l-17.21-.92a25.06,25.06,0,0,1-.63-3.91c0-5.75-1.85-12.32,7.21-13.58,2-.27,3.37-3.06,2.78-5.74l0-.06c8.1-12.41,7.33-25.8-2.64-35.83-4.92,9.35-12.38,15.33-22.75,17.39-7.33,1.45-7.8,1.61-7,8.43,1.11,9.22-.88,17.66-4.59,25.9-1.93.43-3.89,1.32-5.77,1.19C1694.86,598.14,1686.34,599.68,1678.78,605.22Z"/><path class="cls-7" d="M1678.78,605.22c7.56-5.54,16.08-7.08,25.25-6.4,1.88.13,3.84-.76,5.77-1.19,4.44,4.5,10.13,7,15.64,9.85a15.77,15.77,0,0,0,9.46,1.87c2.67-.37,2.85-2.2,2.47-4.32l17.21.92c3.49,1.76,6.93,3.63,10.5,5.21,2,.88,3.35,1.94,3.32,4.25-6.69,10.45-15.49,11.86-26.07,6.22-1.72-.92-3.78-1.18-5.66-1.79-9.78-3.16-9.81-3.19-16,5.67a30.66,30.66,0,0,1-10.27,9.19c-1.8,1-3.54,1.85-3.39,4.3-6.59,1.91-11.71-3.1-18.11-4.86,1.09,5.67,4.09,8.38,7.47,11.28,8.46,7.25,19.05,10.51,28.34,16.13-11.65,15.68-23.6,31.15-33.69,47.94-6.81,11.33-13.54,22.71-20.31,34.07-.28-6.44,3.21-11.89,4.69-17.87.85-3.45,2-6.85,2.95-10.27,4.52-10.86,7.26-21.63,4.56-33.8C1677.31,656.46,1677.74,630.82,1678.78,605.22Z"/><polygon class="cls-15" points="1381 717.62 1380.91 717.22 1381.19 717.66 1381 717.62"/><path class="cls-13" d="M2590.41,486.65c-1.91,3-3.76,6-5.77,8.88-2.57,3.69-5.56,7.1-4.08,12.26.36,1.26-1.6,1.66-2.85,1.9a2.73,2.73,0,0,1-1.78-.71c-2.1-9-2.72-17.92-.34-27.21,1.91-7.43-1.15-14.94-2.8-22.28-.59-2.66-1.19-5.15,0-7.68,3.88-8,7.16-10.74,13.27-3.08,1.43,1.8,2.8,3.63,4.19,5.44Q2590.35,470.42,2590.41,486.65Z"/><path class="cls-8" d="M2575.93,509a2.73,2.73,0,0,0,1.78.71c4.52,2.63,11.32,2.41,12.1,9.69h0c-3.28,2.9-6.84,4.92-11.51,4.22-3.71-.55-7.09.73-10.39,2.36-2.44,1.21-5.34,2-7.28-.37s-.15-5.3,1.39-7.18C2565.66,514,2568.15,507.45,2575.93,509Z"/><path class="cls-10" d="M2590.41,486.65q-.06-16.25-.13-32.48C2603.23,463.76,2603.43,471.85,2590.41,486.65Z"/><path class="cls-13" d="M693.37,641.75q-.27,2.73-.56,5.46c-4.28-.33-4.71-4.18-6.11-7-10.12-20-20.07-40.15-30.23-60.16-1.59-3.14-2.27-7-5.93-8.82.29-12.53.78-25.06.8-37.59a70.61,70.61,0,0,1,2.16-18.56l15.66,2.28c4.76,19.45,10.52,38.7,13.14,58.61,2.66,20.21,7.39,40,11.39,59.94C694.11,638.06,693.62,639.83,693.37,641.75Z"/><path class="cls-11" d="M1203.3,481.2c-.18-3.31-.35-6.62-.53-9.93,10.86,3.62,21.84,6.56,33.45,5.46a33.16,33.16,0,0,0,4.66-1.1c7.63.61,14.29-3.82,21.72-4.23-.78,4.87.65,8.85,3.66,12.89,19.68,26.48,32.22,56.32,40.72,88,.33,1.26.47,2.58.72,4l-24.87,6.87-7.95.07c-8.43-14.16-17.4-28-22.13-44.1-3.28-11.19-4-22.66-5.87-34-.85-5,1.42-9.75,1.75-14.66.42-6.23-.42-6.74-6.42-5.92C1229,486.34,1215.88,486.78,1203.3,481.2Z"/><path class="cls-13" d="M1262.6,471.4c-7.43.41-14.09,4.84-21.72,4.23.16-12.37,8.8-20.21,15.9-28.62,3.56-4.21,6.81-2.94,7.93,2.55s4.42,10.38,4,16.2Z"/><path class="cls-5" d="M2526.47,359.79c1-.63,1.29-1,1.49-1,2.67.76,6,.1,7.57,3.29.44.91-.2,2.33-1,2.31C2531.28,364.39,2528.15,363.83,2526.47,359.79Z"/><path class="cls-14" d="M1262.82,367.56c-3.29-1-7.41-.08-9.41-4.12,6.61-1.9,6.61-1.9,9.31,4.22Z"/><path class="cls-7" d="M650.54,571.27c3.66,1.8,4.34,5.68,5.93,8.82,10.16,20,20.11,40.13,30.23,60.16,1.4,2.78,1.83,6.63,6.11,7a46.2,46.2,0,0,0-.15,15.48c1.75,13.57-.49,27-4.55,40-7.24,23.06-17.33,44.85-31.33,64.7-4.7.12-9.59,1.5-13.68-2.2,2.29-13,4.3-26.13,6.92-39.09,3.49-17.23,4.82-34.73,6.87-52.14.9-7.64-1.35-15.13-2.62-22.63A378.14,378.14,0,0,1,649.52,574,9.56,9.56,0,0,1,650.54,571.27Z"/><path class="cls-13" d="M1724.69,661.55c-9.29-5.62-19.88-8.88-28.34-16.13-3.38-2.9-6.38-5.61-7.47-11.28,6.4,1.76,11.52,6.77,18.11,4.86l30.25,8.5C1734.05,653.06,1729.57,657.49,1724.69,661.55Z"/><path class="cls-11" d="M1818.82,609.18c2.17-9,6.3-17.29,9.37-26,1.27-3.58,3.18-5.84,7.33-3.71-5.15,6.46-8.28,13.61-7.52,22.08Z"/><path class="cls-4" d="M1850.5,606.94c0-.32,0-.64,0-1,.07-2.5,1-4.31,3.72-4.8a1.75,1.75,0,0,1,2.21,1.21c.81,3.2-.74,4.81-3.82,5.26Z"/><path class="cls-8" d="M1737.37,605c.38,2.12.2,4-2.47,4.32a15.77,15.77,0,0,1-9.46-1.87c-5.51-2.81-11.2-5.35-15.64-9.85,3.71-8.24,5.7-16.68,4.59-25.9-.83-6.82-.36-7,7-8.43,10.37-2.06,17.83-8,22.75-17.39,10,10,10.74,23.42,2.64,35.83.34-4.68-1.77-6.81-6.47-6.2-1.27.17-2.68.23-3.11,1.84s.79,2.4,1.84,3.11c2.35,1.59,5.18.64,7.72,1.31.59,2.68-.83,5.47-2.78,5.74-9.06,1.26-7.23,7.83-7.21,13.58A25.06,25.06,0,0,0,1737.37,605Z"/><path class="cls-15" d="M1746.73,581.8c-2.54-.67-5.37.28-7.72-1.31-1-.71-2.27-1.48-1.84-3.11s1.84-1.67,3.11-1.84c4.7-.61,6.81,1.52,6.47,6.2Z"/></g></g></svg>